#usda 1.0
(
    defaultPrim = "Ground"
    metersPerUnit = 1
    upAxis = "Z"
)

def Mesh "Ground"
{
    uniform bool doubleSided = 1
    float3[] extent = [(0, 0, -0.8), (16, 16, 0)]
    int[] faceVertexCounts = [3, 3, 3, 3, 3, 3, 3, 3, 3, 3, 3, 3, 3, 3, 3, 3, 3, 3, 3, 3, 3, 3, 3, 3, 3, 3, 3, 3, 3, 3, 3, 3, 3, 3, 3, 3, 3, 3, 3, 3, 3, 3, 3, 3, 3, 3, 3, 3, 3, 3, 3, 3, 3, 3, 3, 3, 3, 3, 3, 3, 3, 3, 3, 3, 3, 3, 3, 3, 3, 3, 3, 3, 3, 3, 3, 3, 3, 3, 3, 3, 3, 3, 3, 3, 3, 3, 3, 3, 3, 3, 3, 3, 3, 3, 3, 3, 3, 3, 3, 3, 3, 3, 3, 3, 3, 3, 3, 3, 3, 3, 3, 3, 3, 3, 3, 3, 3, 3, 3, 3, 3, 3, 3, 3, 3, 3, 3, 3, 3, 3, 3, 3, 3, 3, 3, 3, 3, 3, 3, 3, 3, 3, 3, 3, 3, 3, 3, 3, 3, 3, 3, 3, 3, 3, 3, 3, 3, 3, 3, 3, 3, 3, 3, 3, 3, 3, 3, 3, 3, 3, 3, 3, 3, 3, 3, 3, 3, 3, 3, 3, 3, 3, 3, 3, 3, 3, 3, 3, 3, 3, 3, 3, 3, 3, 3, 3, 3, 3, 3, 3, 3, 3, 3, 3, 3, 3, 3, 3, 3, 3, 3, 3, 3, 3, 3, 3, 3, 3, 3, 3, 3, 3, 3, 3, 3, 3, 3, 3, 3, 3, 3, 3, 3, 3, 3, 3, 3, 3, 3, 3, 3, 3, 3, 3, 3, 3, 3, 3, 3, 3, 3, 3, 3, 3, 3, 3, 3, 3, 3, 3, 3, 3, 3, 3, 3, 3, 3, 3, 3, 3, 3, 3, 3, 3, 3, 3, 3, 3, 3, 3, 3, 3, 3, 3, 3, 3, 3, 3, 3, 3, 3, 3, 3, 3, 3, 3, 3, 3, 3, 3, 3, 3, 3, 3, 3, 3, 3, 3, 3, 3, 3, 3, 3, 3, 3, 3, 3, 3, 3, 3, 3, 3, 3, 3, 3, 3, 3, 3, 3, 3, 3, 3, 3, 3, 3, 3, 3, 3, 3, 3, 3, 3, 3, 3, 3, 3, 3, 3, 3, 3, 3, 3, 3, 3, 3, 3, 3, 3, 3, 3, 3, 3, 3, 3, 3, 3, 3, 3, 3, 3, 3, 3, 3, 3, 3, 3, 3, 3, 3, 3, 3, 3, 3, 3, 3, 3, 3, 3, 3, 3, 3, 3, 3, 3, 3, 3, 3, 3, 3, 3, 3, 3, 3, 3, 3, 3, 3, 3, 3, 3, 3, 3, 3, 3, 3, 3, 3, 3, 3, 3, 3, 3, 3, 3, 3, 3, 3, 3, 3, 3, 3, 3, 3, 3, 3, 3, 3, 3, 3, 3, 3, 3, 3, 3, 3, 3, 3, 3, 3, 3, 3, 3, 3, 3, 3, 3, 3, 3, 3, 3, 3, 3, 3, 3, 3, 3, 3, 3, 3, 3, 3, 3, 3, 3, 3, 3, 3, 3, 3, 3, 3, 3, 3, 3, 3, 3, 3, 3, 3, 3, 3, 3, 3, 3, 3, 3, 3, 3, 3, 3, 3, 3, 3, 3, 3, 3, 3, 3, 3, 3, 3, 3, 3, 3, 3, 3, 3, 3, 3, 3, 3, 3, 3, 3, 3, 3, 3, 3, 3, 3, 3, 3, 3, 3, 3, 3, 3, 3, 3, 3, 3, 3, 3, 3, 3, 3, 3, 3, 3, 3, 3, 3, 3, 3, 3, 3, 3, 3, 3, 3, 3, 3, 3, 3, 3, 3, 3, 3, 3, 3, 3, 3, 3, 3, 3, 3, 3, 3, 3, 3, 3, 3, 3, 3, 3, 3, 3, 3, 3, 3, 3, 3, 3, 3, 3, 3, 3, 3, 3, 3, 3, 3, 3, 3, 3, 3, 3, 3, 3, 3, 3, 3, 3, 3, 3, 3, 3, 3, 3, 3, 3, 3, 3, 3, 3, 3, 3, 3, 3, 3, 3, 3, 3, 3, 3, 3, 3, 3, 3, 3, 3, 3, 3, 3, 3, 3, 3, 3, 3, 3, 3, 3, 3, 3, 3, 3, 3, 3, 3, 3, 3, 3, 3, 3, 3, 3, 3, 3, 3, 3, 3, 3, 3, 3, 3, 3, 3, 3, 3, 3, 3, 3, 3, 3, 3, 3, 3, 3, 3, 3, 3, 3, 3, 3, 3, 3, 3, 3, 3, 3, 3, 3, 3, 3, 3, 3, 3, 3, 3, 3, 3, 3, 3, 3, 3, 3, 3, 3, 3, 3, 3, 3, 3, 3, 3, 3, 3, 3, 3, 3, 3, 3, 3, 3, 3, 3, 3, 3, 3, 3, 3, 3, 3, 3, 3, 3, 3, 3, 3, 3, 3, 3, 3, 3, 3, 3, 3, 3, 3, 3, 3, 3, 3, 3, 3, 3, 3, 3, 3, 3, 3, 3, 3, 3, 3, 3, 3, 3, 3, 3, 3, 3, 3, 3, 3, 3, 3, 3, 3, 3, 3, 3, 3, 3, 3, 3, 3, 3, 3, 3, 3, 3, 3, 3, 3, 3, 3, 3, 3, 3, 3, 3, 3, 3, 3, 3, 3, 3, 3, 3, 3, 3, 3, 3, 3, 3, 3, 3, 3, 3, 3, 3, 3, 3, 3, 3, 3, 3, 3, 3, 3, 3, 3, 3, 3, 3, 3, 3, 3, 3, 3, 3, 3, 3, 3, 3, 3, 3, 3, 3, 3, 3, 3, 3, 3, 3, 3, 3, 3, 3, 3, 3, 3, 3, 3, 3, 3, 3, 3, 3, 3, 3, 3, 3, 3, 3, 3, 3, 3, 3, 3, 3, 3, 3, 3, 3, 3, 3, 3, 3, 3, 3, 3, 3, 3, 3, 3, 3, 3, 3, 3, 3, 3, 3, 3, 3, 3, 3, 3, 3, 3, 3, 3, 3, 3, 3, 3, 3, 3, 3, 3, 3, 3, 3, 3, 3, 3, 3, 3, 3, 3, 3, 3, 3, 3, 3, 3, 3, 3, 3, 3, 3, 3, 3, 3, 3, 3, 3, 3, 3, 3, 3, 3, 3, 3, 3, 3, 3, 3, 3, 3, 3, 3, 3, 3, 3, 3, 3, 3, 3, 3, 3, 3, 3, 3, 3, 3, 3, 3, 3, 3, 3, 3, 3, 3, 3, 3, 3, 3, 3, 3, 3, 3, 3, 3, 3, 3, 3, 3, 3, 3, 3, 3, 3, 3, 3, 3, 3, 3, 3, 3, 3, 3, 3, 3, 3, 3, 3, 3, 3, 3, 3, 3, 3, 3, 3, 3, 3, 3, 3, 3, 3, 3, 3, 3, 3, 3, 3]
    int[] faceVertexIndices = [245, 246, 330, 94, 95, 212, 306, 307, 474, 323, 319, 318, 193, 77, 78, 13, 186, 12, 185, 184, 69, 148, 149, 274, 478, 148, 433, 472, 468, 469, 154, 522, 531, 338, 126, 344, 431, 110, 109, 261, 262, 500, 491, 496, 489, 316, 338, 345, 555, 31, 32, 388, 395, 376, 404, 362, 408, 499, 485, 305, 461, 438, 460, 298, 450, 411, 171, 301, 300, 47, 229, 230, 403, 417, 352, 191, 192, 7, 144, 143, 145, 155, 545, 156, 264, 450, 413, 420, 429, 421, 396, 9, 190, 109, 108, 395, 114, 234, 233, 234, 115, 235, 277, 278, 424, 199, 200, 515, 309, 272, 273, 317, 373, 147, 177, 176, 514, 538, 523, 537, 433, 382, 383, 42, 235, 462, 282, 283, 33, 170, 451, 448, 162, 289, 161, 332, 340, 326, 103, 340, 332, 426, 83, 82, 386, 351, 352, 343, 373, 320, 534, 427, 408, 54, 55, 223, 136, 414, 137, 372, 342, 142, 491, 489, 458, 216, 215, 98, 418, 428, 420, 398, 397, 416, 162, 161, 519, 70, 71, 186, 108, 107, 377, 228, 109, 110, 390, 389, 378, 120, 119, 315, 234, 43, 233, 391, 117, 400, 152, 128, 278, 128, 250, 278, 335, 333, 328, 339, 127, 338, 104, 332, 331, 223, 104, 105, 148, 274, 273, 150, 276, 275, 271, 272, 308, 270, 271, 311, 434, 461, 479, 474, 488, 255, 131, 255, 254, 133, 257, 256, 135, 258, 134, 135, 136, 259, 414, 136, 439, 303, 516, 302, 177, 525, 522, 157, 156, 545, 184, 185, 14, 526, 523, 547, 537, 160, 159, 537, 543, 160, 526, 550, 545, 324, 332, 326, 57, 219, 220, 353, 247, 205, 87, 86, 452, 498, 404, 427, 85, 452, 86, 81, 426, 82, 245, 321, 323, 245, 244, 124, 270, 269, 144, 415, 367, 366, 398, 416, 421, 207, 89, 90, 349, 357, 354, 6, 192, 193, 450, 425, 413, 210, 368, 209, 298, 299, 450, 297, 168, 169, 496, 477, 167, 532, 502, 533, 163, 164, 291, 506, 295, 217, 190, 189, 74, 14, 185, 13, 494, 502, 464, 187, 72, 188, 22, 293, 21, 27, 287, 540, 183, 553, 16, 44, 45, 466, 223, 224, 54, 431, 112, 111, 112, 113, 232, 230, 110, 111, 377, 333, 336, 401, 459, 400, 472, 471, 473, 118, 117, 399, 443, 238, 239, 235, 236, 449, 130, 473, 471, 278, 449, 424, 237, 238, 422, 198, 199, 546, 104, 223, 222, 224, 105, 106, 275, 274, 149, 127, 339, 102, 103, 104, 222, 119, 358, 315, 334, 328, 333, 328, 329, 335, 122, 121, 312, 479, 461, 467, 277, 276, 151, 314, 313, 327, 312, 316, 122, 382, 147, 373, 149, 148, 478, 35, 36, 280, 34, 35, 281, 132, 133, 256, 468, 473, 447, 153, 177, 522, 471, 131, 130, 528, 513, 174, 531, 522, 525, 432, 433, 383, 134, 486, 135, 258, 257, 134, 457, 518, 501, 371, 369, 380, 95, 94, 476, 516, 260, 302, 169, 170, 299, 488, 254, 255, 307, 279, 488, 176, 177, 306, 524, 521, 513, 30, 284, 551, 289, 25, 539, 17, 549, 16, 304, 174, 175, 507, 517, 535, 554, 179, 19, 507, 518, 457, 517, 519, 161, 537, 536, 543, 163, 162, 527, 86, 87, 204, 316, 326, 338, 321, 245, 330, 344, 124, 345, 392, 204, 205, 201, 200, 84, 87, 88, 205, 404, 403, 362, 202, 201, 85, 102, 221, 220, 409, 357, 77, 387, 351, 348, 196, 80, 81, 199, 82, 83, 194, 78, 79, 426, 81, 427, 318, 270, 311, 243, 244, 311, 208, 207, 90, 347, 350, 337, 394, 374, 402, 371, 383, 382, 268, 143, 144, 209, 368, 322, 93, 367, 415, 322, 208, 209, 2, 3, 497, 498, 475, 417, 92, 364, 367, 356, 349, 354, 405, 398, 421, 409, 354, 357, 412, 410, 265, 370, 394, 138, 213, 212, 95, 385, 267, 210, 170, 169, 451, 480, 299, 300, 213, 95, 96, 214, 215, 411, 458, 171, 448, 297, 296, 168, 21, 520, 548, 218, 178, 520, 179, 178, 64, 167, 296, 295, 66, 181, 180, 418, 407, 419, 428, 430, 444, 191, 75, 76, 365, 363, 393, 465, 481, 463, 98, 97, 463, 73, 72, 440, 189, 190, 9, 67, 542, 68, 511, 100, 99, 67, 181, 66, 6, 7, 192, 184, 68, 69, 227, 109, 228, 229, 47, 48, 110, 230, 229, 228, 229, 446, 226, 108, 227, 456, 431, 395, 446, 50, 228, 49, 50, 446, 231, 112, 232, 44, 232, 233, 45, 231, 466, 113, 112, 389, 375, 336, 453, 389, 456, 378, 399, 379, 493, 378, 492, 379, 390, 114, 113, 116, 117, 237, 235, 449, 462, 43, 235, 42, 401, 114, 459, 492, 378, 388, 237, 422, 424, 236, 424, 449, 252, 253, 482, 39, 40, 252, 252, 40, 251, 509, 250, 251, 423, 422, 238, 276, 277, 422, 151, 152, 277, 423, 276, 422, 226, 107, 108, 51, 52, 226, 377, 107, 333, 53, 224, 225, 375, 360, 379, 360, 375, 453, 324, 325, 334, 335, 453, 336, 332, 104, 103, 104, 331, 105, 57, 220, 56, 55, 221, 222, 313, 324, 326, 328, 334, 325, 453, 329, 358, 324, 313, 325, 119, 240, 239, 117, 118, 238, 120, 327, 121, 241, 240, 120, 467, 445, 150, 423, 275, 276, 443, 437, 275, 147, 148, 273, 241, 309, 273, 240, 241, 359, 242, 308, 309, 123, 122, 310, 148, 147, 382, 371, 382, 373, 317, 147, 146, 272, 271, 146, 252, 251, 129, 252, 129, 130, 254, 38, 253, 253, 131, 254, 469, 468, 461, 447, 445, 468, 486, 134, 460, 471, 472, 132, 254, 488, 487, 482, 253, 39, 36, 279, 280, 39, 253, 38, 132, 472, 133, 134, 133, 460, 175, 521, 176, 176, 306, 305, 432, 439, 438, 434, 478, 433, 486, 439, 135, 414, 439, 432, 174, 304, 303, 304, 305, 485, 173, 303, 302, 174, 173, 528, 343, 320, 342, 394, 370, 374, 369, 370, 380, 381, 138, 137, 261, 137, 138, 483, 301, 302, 457, 172, 171, 261, 301, 483, 177, 153, 307, 522, 154, 153, 282, 34, 281, 531, 155, 154, 157, 545, 550, 556, 531, 525, 524, 523, 521, 31, 555, 283, 547, 159, 158, 285, 29, 551, 285, 284, 157, 29, 285, 286, 159, 547, 538, 544, 287, 28, 523, 524, 536, 535, 524, 528, 535, 536, 524, 535, 517, 536, 286, 287, 544, 287, 286, 159, 517, 161, 543, 540, 288, 26, 490, 519, 507, 172, 457, 501, 508, 490, 458, 163, 527, 504, 291, 290, 163, 520, 21, 293, 290, 25, 289, 162, 163, 290, 102, 103, 221, 204, 392, 442, 59, 202, 203, 201, 202, 441, 247, 125, 126, 244, 243, 123, 124, 125, 246, 392, 247, 248, 86, 202, 85, 201, 61, 200, 101, 219, 249, 86, 203, 202, 125, 247, 246, 353, 205, 206, 89, 88, 346, 361, 88, 406, 85, 201, 84, 515, 200, 61, 63, 546, 529, 59, 203, 58, 406, 452, 408, 403, 404, 498, 81, 475, 427, 417, 80, 79, 197, 198, 1, 199, 198, 82, 198, 197, 82, 197, 2, 196, 0, 1, 198, 195, 196, 497, 435, 436, 4, 125, 124, 344, 245, 124, 246, 319, 323, 269, 271, 270, 145, 88, 89, 206, 90, 89, 348, 209, 91, 92, 321, 208, 322, 270, 144, 145, 269, 268, 144, 394, 402, 139, 145, 342, 320, 367, 93, 92, 268, 322, 368, 385, 210, 211, 211, 93, 94, 347, 348, 351, 357, 355, 78, 357, 78, 77, 351, 387, 352, 195, 79, 80, 436, 195, 4, 193, 194, 435, 6, 193, 5, 210, 92, 93, 364, 92, 350, 363, 365, 354, 76, 363, 409, 77, 76, 409, 396, 191, 8, 363, 76, 75, 76, 192, 191, 212, 213, 412, 141, 402, 374, 141, 140, 402, 139, 140, 263, 266, 265, 141, 266, 385, 384, 214, 213, 96, 264, 410, 411, 450, 299, 425, 480, 262, 263, 170, 171, 300, 425, 299, 480, 298, 411, 215, 169, 298, 297, 455, 297, 454, 217, 296, 216, 171, 170, 448, 552, 496, 505, 296, 167, 168, 165, 164, 505, 291, 24, 290, 292, 291, 164, 293, 294, 520, 520, 294, 218, 216, 98, 99, 217, 99, 100, 296, 217, 295, 217, 218, 506, 22, 292, 293, 506, 218, 294, 19, 180, 181, 20, 554, 19, 407, 418, 416, 476, 421, 429, 415, 366, 421, 75, 393, 363, 407, 397, 73, 190, 191, 396, 407, 73, 440, 188, 11, 187, 96, 428, 444, 465, 463, 430, 465, 419, 464, 428, 418, 430, 72, 73, 188, 186, 187, 495, 495, 187, 11, 188, 189, 10, 465, 502, 503, 481, 465, 503, 100, 511, 530, 66, 65, 541, 19, 179, 180, 548, 178, 20, 18, 181, 182, 19, 181, 18, 533, 70, 69, 533, 494, 70, 69, 68, 542, 185, 69, 70, 182, 183, 549, 67, 68, 182, 15, 16, 553, 183, 16, 549, 229, 228, 110, 227, 228, 50, 49, 446, 229, 231, 230, 111, 47, 230, 46, 431, 111, 110, 231, 111, 112, 109, 227, 108, 226, 227, 51, 456, 395, 388, 109, 395, 431, 225, 226, 52, 335, 336, 333, 108, 377, 395, 46, 231, 45, 456, 112, 431, 456, 389, 112, 232, 466, 231, 232, 44, 466, 390, 113, 389, 113, 233, 232, 375, 492, 376, 456, 388, 378, 391, 378, 379, 390, 378, 459, 388, 376, 492, 377, 376, 395, 391, 379, 117, 375, 379, 492, 236, 235, 115, 235, 43, 234, 237, 236, 116, 115, 114, 401, 250, 462, 449, 114, 115, 234, 236, 115, 116, 401, 116, 115, 391, 400, 459, 117, 379, 399, 118, 399, 493, 400, 116, 401, 117, 116, 400, 423, 238, 443, 117, 238, 237, 509, 41, 250, 509, 251, 40, 128, 251, 250, 449, 278, 250, 152, 278, 277, 129, 128, 484, 128, 152, 484, 236, 237, 424, 277, 424, 422, 151, 150, 445, 150, 151, 276, 152, 447, 484, 152, 151, 447, 467, 470, 445, 151, 445, 447, 107, 225, 106, 107, 226, 225, 224, 106, 225, 106, 105, 333, 515, 62, 199, 53, 54, 224, 224, 223, 105, 334, 105, 331, 360, 453, 358, 453, 335, 329, 118, 358, 119, 360, 358, 493, 106, 333, 107, 334, 333, 105, 314, 329, 328, 329, 315, 358, 546, 63, 0, 324, 331, 332, 324, 334, 331, 55, 56, 221, 103, 102, 340, 102, 339, 340, 314, 325, 313, 314, 328, 325, 339, 326, 340, 313, 326, 316, 241, 120, 121, 314, 327, 329, 310, 316, 345, 327, 313, 312, 240, 119, 120, 118, 119, 239, 443, 239, 437, 118, 239, 238, 329, 327, 315, 327, 120, 315, 274, 359, 273, 239, 240, 437, 149, 150, 275, 467, 150, 479, 470, 467, 461, 149, 479, 150, 359, 437, 240, 359, 274, 437, 479, 478, 434, 479, 149, 478, 316, 312, 313, 121, 122, 242, 241, 242, 309, 272, 309, 308, 310, 122, 316, 243, 242, 122, 242, 243, 308, 271, 308, 311, 241, 273, 359, 147, 273, 272, 382, 433, 148, 434, 433, 432, 317, 146, 320, 272, 146, 147, 373, 341, 371, 369, 371, 341, 482, 39, 252, 128, 129, 251, 472, 473, 468, 38, 254, 37, 253, 130, 131, 253, 252, 130, 484, 447, 473, 470, 468, 445, 469, 460, 133, 470, 461, 468, 499, 256, 257, 471, 132, 131, 469, 133, 472, 257, 133, 134, 279, 37, 487, 131, 132, 255, 474, 255, 256, 36, 37, 279, 279, 307, 153, 488, 474, 307, 474, 256, 306, 132, 256, 255, 135, 259, 258, 257, 485, 499, 307, 306, 177, 499, 306, 256, 514, 176, 521, 499, 305, 306, 461, 460, 469, 486, 460, 438, 380, 414, 383, 434, 432, 438, 136, 135, 439, 257, 258, 485, 136, 137, 260, 259, 260, 516, 304, 510, 303, 304, 485, 510, 305, 175, 176, 305, 304, 175, 303, 510, 516, 510, 259, 516, 174, 303, 173, 172, 173, 302, 381, 380, 370, 381, 414, 380, 342, 372, 343, 369, 374, 370, 381, 137, 414, 260, 261, 483, 262, 261, 138, 370, 138, 381, 259, 136, 260, 261, 260, 137, 483, 302, 260, 172, 302, 301, 139, 263, 262, 261, 500, 301, 457, 171, 458, 301, 171, 172, 35, 280, 281, 531, 556, 155, 281, 154, 155, 154, 281, 280, 282, 281, 155, 545, 155, 556, 282, 155, 156, 526, 556, 525, 526, 545, 556, 550, 158, 157, 285, 157, 158, 526, 521, 523, 514, 521, 525, 550, 547, 158, 550, 526, 547, 32, 33, 555, 31, 284, 30, 283, 555, 33, 31, 283, 284, 283, 282, 156, 156, 284, 283, 156, 157, 284, 286, 158, 159, 286, 285, 158, 284, 285, 551, 30, 551, 29, 547, 523, 538, 287, 159, 160, 27, 28, 287, 29, 286, 544, 507, 535, 518, 175, 174, 513, 528, 518, 535, 528, 173, 518, 538, 537, 159, 536, 537, 523, 517, 543, 536, 543, 161, 160, 28, 29, 544, 288, 160, 161, 288, 287, 160, 288, 289, 539, 289, 288, 161, 287, 288, 540, 27, 540, 26, 517, 507, 519, 507, 457, 490, 508, 458, 489, 457, 458, 490, 508, 519, 490, 162, 519, 527, 508, 527, 519, 489, 504, 527, 162, 290, 289, 26, 539, 25, 539, 26, 288, 25, 290, 24, 24, 291, 23, 221, 56, 220, 127, 249, 248, 127, 102, 101, 57, 58, 219, 101, 249, 127, 249, 219, 442, 339, 338, 326, 344, 126, 125, 344, 345, 338, 310, 345, 123, 338, 127, 126, 392, 248, 249, 353, 246, 247, 206, 207, 353, 219, 58, 203, 59, 60, 202, 392, 249, 442, 86, 204, 203, 452, 406, 87, 87, 406, 88, 392, 205, 247, 87, 205, 204, 246, 353, 207, 88, 206, 205, 406, 408, 362, 361, 406, 362, 361, 346, 88, 387, 346, 362, 60, 61, 441, 84, 83, 534, 85, 84, 452, 61, 62, 515, 200, 83, 84, 200, 199, 83, 84, 534, 452, 426, 534, 83, 387, 362, 403, 361, 362, 346, 498, 427, 475, 426, 427, 534, 386, 79, 78, 498, 417, 403, 62, 63, 529, 198, 546, 0, 1, 2, 197, 197, 81, 82, 497, 196, 2, 475, 81, 80, 81, 197, 196, 497, 3, 195, 196, 195, 80, 475, 80, 417, 3, 4, 195, 345, 124, 123, 318, 244, 323, 270, 318, 319, 244, 245, 323, 243, 311, 308, 318, 311, 244, 268, 269, 322, 269, 270, 319, 89, 207, 206, 207, 208, 330, 90, 348, 337, 209, 208, 91, 321, 269, 323, 321, 322, 269, 90, 91, 208, 347, 337, 348, 342, 145, 143, 145, 146, 271, 368, 210, 267, 143, 142, 342, 341, 343, 372, 341, 373, 343, 385, 266, 267, 372, 142, 141, 368, 267, 268, 143, 268, 267, 356, 367, 364, 209, 92, 210, 142, 267, 266, 142, 143, 267, 385, 211, 212, 93, 211, 210, 357, 349, 355, 349, 347, 351, 91, 337, 350, 91, 90, 337, 403, 352, 387, 386, 352, 417, 351, 355, 349, 351, 386, 355, 195, 194, 79, 436, 435, 194, 5, 435, 4, 194, 193, 78, 386, 78, 355, 435, 5, 193, 347, 349, 350, 349, 356, 364, 476, 415, 421, 356, 366, 367, 409, 363, 354, 356, 354, 365, 397, 393, 74, 366, 356, 405, 193, 192, 77, 76, 77, 192, 7, 8, 191, 191, 190, 75, 75, 74, 393, 8, 9, 396, 372, 141, 374, 266, 141, 142, 140, 141, 265, 412, 265, 384, 394, 139, 138, 140, 139, 402, 264, 140, 265, 264, 263, 140, 264, 265, 410, 212, 412, 384, 212, 211, 94, 415, 94, 93, 213, 410, 412, 213, 214, 410, 428, 96, 429, 96, 97, 214, 500, 300, 301, 425, 480, 263, 263, 413, 425, 263, 264, 413, 480, 300, 500, 170, 300, 299, 299, 298, 169, 451, 169, 168, 264, 411, 450, 214, 411, 410, 215, 297, 298, 296, 297, 455, 430, 463, 444, 214, 97, 215, 97, 98, 215, 98, 463, 481, 477, 491, 451, 477, 496, 491, 552, 489, 496, 508, 489, 527, 477, 168, 167, 477, 451, 168, 552, 505, 164, 167, 166, 496, 552, 164, 504, 292, 164, 165, 292, 23, 291, 166, 505, 496, 166, 165, 505, 22, 23, 292, 216, 455, 454, 216, 296, 455, 512, 503, 502, 216, 99, 217, 166, 295, 294, 166, 167, 295, 100, 64, 218, 218, 217, 100, 166, 294, 165, 506, 294, 295, 165, 293, 292, 294, 293, 165, 218, 64, 178, 65, 64, 530, 21, 548, 20, 178, 548, 520, 95, 476, 429, 415, 476, 94, 420, 428, 429, 95, 429, 96, 365, 405, 356, 365, 398, 405, 407, 416, 397, 420, 416, 418, 397, 74, 73, 190, 74, 75, 9, 10, 189, 189, 73, 74, 189, 188, 73, 10, 11, 188, 419, 430, 418, 419, 465, 430, 512, 511, 503, 99, 98, 481, 419, 440, 464, 419, 407, 440, 72, 71, 464, 465, 464, 502, 494, 464, 71, 464, 440, 72, 12, 495, 11, 187, 71, 72, 187, 186, 71, 495, 12, 186, 67, 541, 542, 511, 541, 65, 512, 532, 541, 512, 502, 532, 64, 100, 530, 65, 530, 511, 511, 512, 541, 66, 541, 67, 554, 20, 178, 178, 179, 554, 64, 65, 179, 65, 180, 179, 65, 66, 180, 18, 182, 17, 532, 533, 69, 494, 533, 502, 186, 13, 185, 532, 542, 541, 532, 69, 542, 183, 184, 553, 184, 14, 15, 67, 182, 181, 183, 182, 68, 549, 17, 182, 184, 183, 68, 15, 553, 184, 49, 229, 48, 50, 51, 227, 231, 46, 230, 113, 114, 233, 44, 233, 43, 390, 459, 114, 391, 459, 378, 250, 41, 462, 41, 42, 462, 52, 53, 225, 376, 336, 375, 376, 377, 336, 55, 222, 223, 103, 222, 221, 360, 493, 379, 118, 493, 358, 443, 275, 423, 274, 275, 437, 312, 121, 327, 242, 241, 121, 40, 41, 509, 129, 473, 130, 129, 484, 473, 37, 254, 487, 279, 487, 488, 486, 438, 439, 434, 438, 461, 510, 258, 259, 510, 485, 258, 380, 383, 371, 432, 383, 414, 153, 280, 279, 153, 154, 280, 514, 525, 177, 526, 525, 521, 33, 34, 282, 521, 175, 513, 524, 513, 528, 173, 501, 518, 173, 172, 501, 101, 220, 219, 101, 102, 220, 248, 126, 127, 248, 247, 126, 442, 203, 204, 442, 219, 203, 61, 201, 441, 60, 441, 202, 534, 408, 452, 404, 408, 427, 199, 529, 546, 199, 62, 529, 244, 123, 124, 122, 123, 243, 207, 330, 246, 321, 330, 208, 317, 320, 373, 146, 145, 320, 346, 348, 89, 346, 387, 348, 417, 79, 386, 194, 195, 436, 364, 350, 349, 91, 350, 92, 341, 374, 369, 341, 372, 374, 385, 212, 384, 265, 266, 384, 138, 139, 262, 500, 262, 480, 491, 448, 451, 491, 458, 448, 164, 163, 504, 552, 504, 489, 215, 454, 297, 215, 216, 454, 405, 421, 366, 420, 421, 416, 398, 393, 397, 398, 365, 393, 97, 444, 463, 97, 96, 444, 99, 503, 511, 99, 481, 503, 71, 70, 494, 186, 185, 70]
    point3f[] points = [
        (16, 0, -0.8),
        (16, 1, -0.8),
        (16, 2, -0.8),
        (16, 3, -0.8),
        (16, 4, -0.8),
        (16, 5, -0.8),
        (16, 6, -0.8),
        (16, 7, -0.8),
        (16, 8, -0.8),
        (16, 9, -0.8),
        (16, 10, -0.8),
        (16, 11, -0.8),
        (16, 12, -0.8),
        (16, 13, -0.8),
        (16, 14, -0.8),
        (16, 15, -0.8),
        (16, 16, -0.8),
        (15, 16, -0.8),
        (14, 16, -0.8),
        (13, 16, -0.8),
        (12, 16, -0.8),
        (11, 16, -0.8),
        (10, 16, -0.8),
        (9, 16, -0.8),
        (8, 16, -0.8),
        (7, 16, -0.8),
        (6, 16, -0.8),
        (5, 16, -0.8),
        (4, 16, -0.8),
        (3, 16, -0.8),
        (2, 16, -0.8),
        (1, 16, -0.8),
        (0, 16, -0.8),
        (0, 15, -0.8),
        (0, 14, -0.8),
        (0, 13, -0.8),
        (0, 12, -0.8),
        (0, 11, -0.8),
        (0, 10, -0.8),
        (0, 9, -0.8),
        (0, 8, -0.8),
        (0, 7, -0.8),
        (0, 6, -0.8),
        (0, 5, -0.8),
        (0, 4, -0.8),
        (0, 3, -0.8),
        (0, 2, -0.8),
        (0, 1, -0.8),
        (0, 0, -0.8),
        (1, 0, -0.8),
        (2, 0, -0.8),
        (3, 0, -0.8),
        (4, 0, -0.8),
        (5, 0, -0.8),
        (6, 0, -0.8),
        (7, 0, -0.8),
        (8, 0, -0.8),
        (9, 0, -0.8),
        (10, 0, -0.8),
        (11, 0, -0.8),
        (12, 0, -0.8),
        (13, 0, -0.8),
        (14, 0, -0.8),
        (15, 0, -0.8),
        (11.872599, 15, 0),
        (12.6544492, 15, 0),
        (13.4362995, 15, 0),
        (14.2181498, 15, 0),
        (15, 15, 0),
        (15, 14, 0),
        (15, 13, 0),
        (15, 12, 0),
        (15, 11, 0),
        (15, 10, 0),
        (15, 9, 0),
        (15, 8, 0),
        (15, 7, 0),
        (15, 6, 0),
        (15, 5, 0),
        (15, 4, 0),
        (15, 3, 0),
        (15, 2, 0),
        (15, 1, 0),
        (14.0739703, 1, 0),
        (13.1479405, 1, 0),
        (12.2219107, 1, 0),
        (11.295881, 1, -7.20487506e-07),
        (11.3343289, 1.93333333, -6.55265571e-07),
        (11.3727767, 2.86666667, -5.90043637e-07),
        (11.4112246, 3.8, -5.24821705e-07),
        (11.4496725, 4.73333333, -4.5959977e-07),
        (11.4881203, 5.66666667, -3.94377835e-07),
        (11.5265682, 6.6, -3.29155901e-07),
        (11.5650161, 7.53333333, -2.63933967e-07),
        (11.6034639, 8.46666667, -1.98712035e-07),
        (11.6419118, 9.4, -1.334901e-07),
        (11.6803597, 10.3333333, -6.82681655e-08),
        (11.7188075, 11.2666667, -3.046231e-09),
        (11.7572554, 12.2, 0),
        (11.7957033, 13.1333333, 0),
        (11.8341511, 14.0666667, 0),
        (9.294185, 1, -1.77635684e-16),
        (8.37260889, 1, -1.77635684e-16),
        (7.45103278, 1, -1.77635684e-16),
        (6.52945667, 1, -1.77635684e-16),
        (5.60788056, 1, -1.77635684e-16),
        (4.68630444, 1, -1.77635684e-16),
        (3.76472833, 1, -1.77635684e-16),
        (2.84315222, 1, -1.77635684e-16),
        (1.92157611, 1, -1.77635684e-16),
        (1, 1, -1.77635684e-16),
        (1, 1.8624988, 0),
        (1, 2.7249976, 0),
        (1, 3.5874964, 0),
        (1, 4.4499952, 0),
        (1, 5.312494, 0),
        (1.93575989, 5.17764311, 0),
        (2.87151978, 5.04279222, 0),
        (3.80727967, 4.90794133, 0),
        (4.74303956, 4.77309044, 0),
        (5.67879944, 4.63823956, 0),
        (6.61455933, 4.50338867, 0),
        (7.55031922, 4.36853778, 0),
        (8.48607911, 4.23368689, 0),
        (9.421839, 4.098836, -4.22005447e-08),
        (9.3899255, 3.324127, 0),
        (9.358012, 2.549418, 0),
        (9.3260985, 1.774709, 0),
        (1, 7.333155, 0),
        (1, 8.243136, 0),
        (1, 9.153117, 0),
        (1, 10.063098, -7.82020915e-07),
        (1.96205, 10.0386039, -7.5183733e-07),
        (2.9241, 10.0141098, -7.21653742e-07),
        (3.88615, 9.98961567, -6.91470158e-07),
        (4.8482, 9.96512156, -6.6128657e-07),
        (5.81025, 9.94062744, -6.31102985e-07),
        (6.7723, 9.91613333, -6.00919397e-07),
        (7.73435, 9.89163922, -5.70735812e-07),
        (8.6964, 9.86714511, -5.40552224e-07),
        (9.65845, 9.842651, -5.10368639e-07),
        (9.61998425, 8.90888125, 0),
        (9.5815185, 7.9751115, 0),
        (9.54305275, 7.04134175, 0),
        (9.504587, 6.107572, 0),
        (8.55963289, 6.24374789, 0),
        (7.61467878, 6.37992378, 0),
        (6.66972467, 6.51609967, 0),
        (5.72477056, 6.65227556, 0),
        (4.77981644, 6.78845144, 0),
        (3.83486233, 6.92462733, 0),
        (2.88990822, 7.06080322, 0),
        (1.94495411, 7.19697911, 0),
        (1, 12.063746, 0),
        (1, 13.0424973, 0),
        (1, 14.0212487, 0),
        (1, 15, 0),
        (1.98565589, 15, 0),
        (2.97131178, 15, 0),
        (3.95696767, 15, 0),
        (4.94262356, 15, 0),
        (5.92827944, 15, 0),
        (6.91393533, 15, 0),
        (7.89959122, 15, 0),
        (8.88524711, 15, 0),
        (9.870903, 15, -6.32725916e-07),
        (9.838372, 14.2103008, -5.51513184e-07),
        (9.805841, 13.4206015, -4.70300454e-07),
        (9.77331, 12.6309023, -3.89087722e-07),
        (9.740779, 11.841203, -3.0787499e-07),
        (8.76958133, 11.86593, 0),
        (7.79838367, 11.890657, 0),
        (6.827186, 11.915384, 0),
        (5.85598833, 11.940111, 0),
        (4.88479067, 11.964838, 0),
        (3.913593, 11.989565, 0),
        (2.94239533, 12.014292, 0),
        (1.97119767, 12.039019, 0),
        (11.392772, 15.5, -0.8),
        (12.2142176, 15.5, -0.8),
        (13.0356632, 15.5, -0.8),
        (13.8571088, 15.5, -0.8),
        (14.6785544, 15.5, -0.8),
        (15.5, 15.5, -0.8),
        (15.5, 14.5, -0.8),
        (15.5, 13.5, -0.8),
        (15.5, 12.5, -0.8),
        (15.5, 11.5, -0.8),
        (15.5, 10.5, -0.8),
        (15.5, 9.5, -0.8),
        (15.5, 8.5, -0.8),
        (15.5, 7.5, -0.8),
        (15.5, 6.5, -0.8),
        (15.5, 5.5, -0.8),
        (15.5, 4.5, -0.8),
        (15.5, 3.5, -0.8),
        (15.5, 2.5, -0.8),
        (15.5, 1.5, -0.8),
        (15.5, 0.5, -0.8),
        (14.554972, 0.5, -0.8),
        (13.609944, 0.5, -0.8),
        (12.664916, 0.5, -0.8),
        (11.719888, 0.5, -0.8),
        (10.77486, 0.5, -0.8),
        (10.8134795, 1.4375, -0.8),
        (10.852099, 2.375, -0.8),
        (10.8907185, 3.3125, -0.8),
        (10.929338, 4.25, -0.8),
        (10.9679575, 5.1875, -0.8),
        (11.006577, 6.125, -0.8),
        (11.0451965, 7.0625, -0.8),
        (11.083816, 8, -0.8),
        (11.1224355, 8.9375, -0.8),
        (11.161055, 9.875, -0.8),
        (11.1996745, 10.8125, -0.799999984),
        (11.238294, 11.75, -0.799999933),
        (11.2769135, 12.6875, -0.799999881),
        (11.315533, 13.625, -0.79999983),
        (11.3541525, 14.5625, -0.799999779),
        (9.774012, 0.5, -0.8),
        (8.8466108, 0.5, -0.8),
        (7.9192096, 0.5, -0.8),
        (6.9918084, 0.5, -0.8),
        (6.0644072, 0.5, -0.8),
        (5.137006, 0.5, -0.8),
        (4.2096048, 0.5, -0.8),
        (3.2822036, 0.5, -0.8),
        (2.3548024, 0.5, -0.8),
        (1.4274012, 0.5, -0.8),
        (0.5, 0.5, -0.8),
        (0.5, 1.39828567, -0.8),
        (0.5, 2.29657133, -0.8),
        (0.5, 3.194857, -0.8),
        (0.5, 4.09314267, -0.8),
        (0.5, 4.99142833, -0.8),
        (0.5, 5.889714, -0.8),
        (1.4439997, 5.7536756, -0.8),
        (2.3879994, 5.6176372, -0.8),
        (3.3319991, 5.4815988, -0.8),
        (4.2759988, 5.3455604, -0.8),
        (5.2199985, 5.209522, -0.799999934),
        (6.1639982, 5.0734836, -0.799999862),
        (7.1079979, 4.9374452, -0.799999789),
        (8.0519976, 4.8014068, -0.799999716),
        (8.9959973, 4.6653684, -0.799999643),
        (9.939997, 4.52933, -0.8),
        (9.9068, 3.723464, -0.8),
        (9.873603, 2.917598, -0.8),
        (9.840406, 2.111732, -0.799999883),
        (9.807209, 1.305866, -0.799999762),
        (0.5, 6.900044, -0.8),
        (0.5, 7.8190305, -0.8),
        (0.5, 8.738017, -0.8),
        (0.5, 9.6570035, -0.8),
        (0.5, 10.57599, -0.8),
        (1.4678932, 10.5513471, -0.8),
        (2.4357864, 10.5267042, -0.8),
        (3.4036796, 10.5020613, -0.8),
        (4.3715728, 10.4774184, -0.8),
        (5.339466, 10.4527755, -0.8),
        (6.3073592, 10.4281326, -0.8),
        (7.2752524, 10.4034897, -0.8),
        (8.2431456, 10.3788468, -0.799999997),
        (9.2110388, 10.3542039, -0.799999936),
        (10.178932, 10.329561, -0.799999875),
        (10.1394198, 9.3703884, -0.799999865),
        (10.0999076, 8.4112158, -0.799999947),
        (10.0603954, 7.4520432, -0.8),
        (10.0208832, 6.4928706, -0.8),
        (9.981371, 5.533698, -0.8),
        (9.0332339, 5.6703326, -0.8),
        (8.0850968, 5.8069672, -0.8),
        (7.1369597, 5.9436018, -0.8),
        (6.1888226, 6.0802364, -0.8),
        (5.2406855, 6.216871, -0.8),
        (4.2925484, 6.3535056, -0.8),
        (3.3444113, 6.4901402, -0.8),
        (2.3962742, 6.6267748, -0.8),
        (1.4481371, 6.7634094, -0.8),
        (0.5, 11.576314, -0.8),
        (0.5, 12.5572355, -0.8),
        (0.5, 13.538157, -0.8),
        (0.5, 14.5190785, -0.8),
        (0.5, 15.5, -0.8),
        (1.4891924, 15.5, -0.8),
        (2.4783848, 15.5, -0.8),
        (3.4675772, 15.5, -0.8),
        (4.4567696, 15.5, -0.8),
        (5.445962, 15.5, -0.8),
        (6.4351544, 15.5, -0.8),
        (7.4243468, 15.5, -0.8),
        (8.4135392, 15.5, -0.8),
        (9.4027316, 15.5, -0.8),
        (10.391924, 15.5, -0.8),
        (10.3575584, 14.6657674, -0.8),
        (10.3231928, 13.8315348, -0.8),
        (10.2888272, 12.9973022, -0.79999979),
        (10.2544616, 12.1630696, -0.799999567),
        (10.220096, 11.328837, -0.8),
        (9.2480864, 11.3535847, -0.8),
        (8.2760768, 11.3783324, -0.8),
        (7.3040672, 11.4030801, -0.799999986),
        (6.3320576, 11.4278278, -0.799999933),
        (5.360048, 11.4525755, -0.799999879),
        (4.3880384, 11.4773232, -0.799999826),
        (3.4160288, 11.5020709, -0.799999773),
        (2.4440192, 11.5268186, -0.79999972),
        (1.4720096, 11.5515663, -0.799999667),
        (7.59021997, 5.12766899, -0.8),
        (6.72870722, 5.35590235, -0.8),
        (8.07888754, 4.11835701, 0),
        (8.42680205, 5.05950327, -0.8),
        (6.80003965, 4.31773559, 0),
        (6.95594404, 3.15592495, 0),
        (6.28981859, 3.2317598, 0),
        (5.62349396, 4.20777587, 0),
        (7.66249012, 3.50690762, 0),
        (7.66424521, 6.64940025, 0),
        (9.10135011, 4.92861496, -0.8),
        (9.54387773, 5.38516072, -0.8),
        (8.33071255, 6.65670543, 0),
        (10.4967649, 5.10808093, -0.8),
        (10.3965891, 5.98828299, -0.8),
        (9.81123127, 4.76744539, -0.8),
        (6.70836298, 2.26179335, 0),
        (6.10215537, 2.54351425, 0),
        (7.33609477, 2.44494721, 0),
        (6.24505883, 3.87002121, 0),
        (5.38576734, 2.61206329, 0),
        (5.07323415, 3.46007821, 0),
        (10.7360495, 4.38581875, -0.8),
        (6.44417456, 1.40856505, 0),
        (7.10214976, 1.52715908, 0),
        (4.70185331, 1.88305917, 0),
        (5.76441516, 1.64852044, 0),
        (4.45383599, 2.59235246, 0),
        (3.81673318, 2.29932608, 0),
        (11.7348978, 5.11919453, 0),
        (8.51884558, 2.61282766, 0),
        (8.20918623, 1.960589, 0),
        (7.79986643, 1.35430517, 0),
        (8.05693381, 7.86236264, 0),
        (9.24218773, 7.21605946, 0),
        (8.54754863, 7.47702959, 0),
        (9.19175064, 3.27687731, 0),
        (8.54165333, 3.42900672, 0),
        (11.8728714, 3.69793549, 0),
        (12.6314364, 4.98402921, 0),
        (12.2552791, 4.27933356, 0),
        (13.2973428, 5.86346912, 0),
        (12.3161833, 6.07082025, 0),
        (13.2393189, 4.78564208, 0),
        (13.429307, 4.06593257, 0),
        (10.4995751, 3.23020299, -0.8),
        (13.9306807, 6.68788785, 0),
        (13.7886031, 5.30165763, 0),
        (13.2002638, 6.93337973, 0),
        (14.2724516, 5.77144654, 0),
        (4.39514142, 4.10947428, 0),
        (5.29116725, 5.36186872, -0.8),
        (3.84489155, 3.59552972, 0),
        (11.8350114, 2.86633745, 0),
        (12.7981263, 2.98782928, 0),
        (14.3235595, 7.21540787, 0),
        (12.6405534, 6.60394933, 0),
        (13.7506531, 7.7271047, 0),
        (12.4913721, 7.85809919, 0),
        (12.0487139, 7.35533837, 0),
        (10.5391679, 6.81370005, -0.8),
        (7.60025306, 8.38562357, 0),
        (7.61214651, 9.01424503, 0),
        (7.10083089, 7.8410746, 0),
        (9.11820771, 8.15988542, 0),
        (7.63447951, 7.2711219, 0),
        (8.65668476, 8.77827908, 0),
        (3.33999484, 3.05154901, 0),
        (3.19321873, 2.16499043, 0),
        (3.43395682, 1.55852679, 0),
        (2.25120037, 3.62238624, 0),
        (2.9484442, 3.96071004, 0),
        (6.96112309, 8.58946343, 0),
        (6.94710928, 9.41928112, 0),
        (6.56474531, 7.29846366, 0),
        (6.36176826, 8.26830013, 0),
        (10.255556, 8.47616834, -0.8),
        (10.7552653, 7.93111709, -0.8),
        (14.2121618, 4.40209143, 0),
        (12.8109501, 3.758126, 0),
        (2.21054408, 2.51196149, 0),
        (1.17733946, 3.07034864, 0),
        (1.23217842, 3.70012757, 0),
        (2.37023065, 4.23522653, 0),
        (10.3148883, 2.07904938, -0.8),
        (14.3056996, 8.25430178, 0),
        (8.46467326, 9.47308649, 0),
        (2.21949694, 1.59784864, 0),
        (15.7719417, 8.21568964, -0.8),
        (14.6109739, 9.04151545, 0),
        (13.9344699, 8.78618783, 0),
        (3.37407804, 4.80526271, 0),
        (2.04120918, 4.92350664, 0),
        (1.35177087, 4.7989217, 0),
        (9.42386593, 9.56748731, 0),
        (13.4925897, 3.38933294, 0),
        (13.3842561, 2.68390801, 0),
        (13.1742928, 8.23877539, 0),
        (11.9854819, 2.12750958, 0),
        (14.2984459, 10.0595242, 0),
        (12.9839304, 2.03913451, 0),
        (14.6119012, 6.34084865, 0),
        (10.9380563, 9.99616766, -0.8),
        (10.7857448, 10.8601581, -0.8),
        (10.7424041, 9.29207569, -0.8),
        (9.45854773, 10.5190943, -0.8),
        (6.26901807, 9.33927619, 0),
        (11.8792596, 8.34094029, 0),
        (13.6453141, 9.64036736, 0),
        (14.2791804, 3.66063822, 0),
        (13.1317492, 10.3197053, 0),
        (13.6798997, 10.8684566, 0),
        (12.9706254, 9.59857708, 0),
        (12.7479576, 8.9372953, 0),
        (2.83384854, 6.29970555, -0.8),
        (3.4577254, 6.11495327, -0.8),
        (2.02232025, 6.13602005, -0.8),
        (9.25314579, 11.1416404, -0.8),
        (14.0170043, 1.43483688, 0),
        (14.1642788, 2.08102873, 0),
        (12.5146461, 10.4062154, 0),
        (12.2997945, 9.64186444, 0),
        (12.9294522, 11.2569367, 0),
        (1.21829265, 1.89145974, 0),
        (5.63855923, 8.59087434, 0),
        (5.78724783, 7.60038867, 0),
        (5.13943269, 8.0970601, 0),
        (15.7743085, 4.88144456, -0.8),
        (15.6798359, 4.09623744, -0.8),
        (4.90502509, 5.94665471, -0.8),
        (4.87677773, 8.97865845, 0),
        (5.25548181, 9.7321355, 0),
        (14.713294, 10.6340745, 0),
        (12.3431814, 0.218033499, -0.8),
        (10.5250301, 1.41658542, -0.8),
        (4.28562814, 5.89904996, -0.8),
        (12.052666, 10.896935, 0),
        (3.02364401, 7.23003747, 0),
        (1.2978605, 0.343881665, -0.8),
        (2.27266225, 7.35130029, 0),
        (8.33012216, 12.3069967, 0),
        (1.20731908, 6.04057419, -0.8),
        (9.95362447, 11.1003065, -0.8),
        (9.33227382, 12.2392105, 0),
        (12.1073288, 1.38151989, 0),
        (4.42608486, 3.23329541, 0),
        (11.1016961, 12.273095, -0.8),
        (10.4531202, 12.5456355, -0.8),
        (1.5934621, 2.58103262, 0),
        (6.95512503, 12.6893708, 0),
        (7.75014005, 12.6312516, 0),
        (1.71011215, 4.16774929, 0),
        (3.93023203, 9.48648553, 0),
        (3.83825529, 8.64015777, 0),
        (0.366776688, 6.70103798, -0.8),
        (11.9970536, 11.6016579, 0),
        (14.2047849, 11.6594562, 0),
        (13.10354, 11.9585805, 0),
        (0.326617276, 3.14710102, -0.8),
        (3.85388269, 7.45985018, 0),
        (2.75416189, 8.27254783, 0),
        (2.886114, 9.08866835, 0),
        (3.28638408, 7.89271876, 0),
        (1.78755601, 9.48932565, 0),
        (2.22778345, 9.03442464, 0),
        (1.80785805, 8.5326001, 0),
        (1.9228301, 11.1377423, -0.8),
        (14.6832384, 2.9651418, 0),
        (12.0257695, 9.05401769, 0),
        (9.35843313, 13.0178688, 0),
        (5.12127284, 7.14362399, 0),
        (4.6297399, 7.5589318, 0),
        (8.66238331, 10.9001329, -0.8),
        (12.2452429, 12.3523941, 0),
        (0.248600162, 9.02549655, -0.8),
        (6.79017109, 10.8242657, -0.8),
        (1.39241819, 7.70972259, 0),
        (3.80132588, 10.7017355, -0.8),
        (4.62552892, 9.58425022, 0),
        (0.229903235, 10.9948415, -0.8),
        (1.27903207, 11.3762047, -0.8),
        (8.16077081, 13.7397626, 0),
        (6.81349083, 13.395658, 0),
        (8.53447773, 13.0609889, 0),
        (2.58080096, 3.01480065, 0),
        (3.74450753, 4.24322384, 0),
        (14.7962857, 12.1958748, 0),
        (15.8423346, 11.7655275, -0.8),
        (9.0375346, 13.5924859, 0),
        (15.7485252, 2.78809381, -0.8),
        (14.0268904, 3.04709378, 0),
        (3.26147417, 11.0320585, -0.8),
        (8.08131957, 10.6341783, -0.8),
        (6.31921806, 12.2051852, 0),
        (13.7690281, 12.6836587, 0),
        (12.6241081, 12.8459979, 0),
        (8.51965111, 14.7075709, 0),
        (9.5916994, 14.3377258, 0),
        (10.8911843, 14.0935993, -0.8),
        (6.16299409, 13.4678661, 0),
        (7.29613272, 13.8717615, 0),
        (0.161668839, 7.78599671, -0.8),
        (4.46665872, 11.1259306, -0.8),
        (12.5826803, 13.9701398, 0),
        (13.4209, 13.3311993, 0),
        (4.05568397, 12.4216774, 0),
        (2.69277253, 12.3547092, 0),
        (13.8396788, 0.164739877, -0.8),
        (5.31556497, 11.1204392, -0.8),
        (5.99055442, 14.1125395, 0),
        (5.74702347, 12.9862512, 0),
        (6.6195339, 14.1540743, 0),
        (10.6615175, 15.2149939, -0.8),
        (3.48187059, 12.9712923, 0),
        (1.47222121, 12.3504365, 0),
        (3.95559494, 13.9009166, 0),
        (4.36156388, 13.2700731, 0),
        (2.42472311, 13.1350431, 0),
        (2.93520373, 13.8629046, 0),
        (7.46929441, 14.7393606, 0),
        (5.0485683, 12.5046682, 0),
        (14.6012498, 0.217219088, -0.8),
        (12.1857134, 14.6437441, 0),
        (1.40094867, 13.0225544, 0),
        (14.1932044, 13.4835144, 0),
        (14.6803401, 13.0900545, 0),
        (13.3385978, 1.46767361, 0),
        (5.17017337, 13.2235287, 0),
        (4.93079381, 13.9808396, 0),
        (4.67561498, 14.5668602, 0),
        (3.94577374, 14.5568305, 0),
        (6.09957619, 15.7730666, -0.8),
        (5.0763561, 15.8270378, -0.8),
        (13.3251008, 14.2621442, 0),
        (14.4338642, 14.3828715, 0),
        (5.3991586, 14.4364965, 0),
        (3.71515041, 15.6806704, -0.8),
        (1.94997851, 14.2174541, 0),
        (15.2881762, 0.192596584, -0.8),
        (3.32827694, 14.3493361, 0),
        (11.3154262, 15.6324508, -0.8),
        (15.2635493, 15.6520527, -0.8),
        (2.6071947, 14.45677, 0),
        (2.18946182, 15.7199887, -0.8),
        (8.94028763, 14.2470237, 0),
        (15.7332052, 15.2472869, -0.8),
        (12.0982612, 15.7074259, -0.8),
        (0.400419448, 15.7188094, -0.8),
        (1.87042539, 13.5579998, 0)
    ]
    color3f[] primvars:displayColor = [
        (0.34, 0.2, 0.08),
        (0.34, 0.2, 0.08),
        (0.34, 0.2, 0.08),
        (0.34, 0.2, 0.08),
        (0.34, 0.2, 0.08),
        (0.34, 0.2, 0.08),
        (0.34, 0.2, 0.08),
        (0.34, 0.2, 0.08),
        (0.34, 0.2, 0.08),
        (0.34, 0.2, 0.08),
        (0.34, 0.2, 0.08),
        (0.34, 0.2, 0.08),
        (0.34, 0.2, 0.08),
        (0.34, 0.2, 0.08),
        (0.34, 0.2, 0.08),
        (0.34, 0.2, 0.08),
        (0.34, 0.2, 0.08),
        (0.34, 0.2, 0.08),
        (0.34, 0.2, 0.08),
        (0.34, 0.2, 0.08),
        (0.34, 0.2, 0.08),
        (0.34, 0.2, 0.08),
        (0.34, 0.2, 0.08),
        (0.34, 0.2, 0.08),
        (0.34, 0.2, 0.08),
        (0.34, 0.2, 0.08),
        (0.34, 0.2, 0.08),
        (0.34, 0.2, 0.08),
        (0.34, 0.2, 0.08),
        (0.34, 0.2, 0.08),
        (0.34, 0.2, 0.08),
        (0.34, 0.2, 0.08),
        (0.34, 0.2, 0.08),
        (0.34, 0.2, 0.08),
        (0.34, 0.2, 0.08),
        (0.34, 0.2, 0.08),
        (0.34, 0.2, 0.08),
        (0.34, 0.2, 0.08),
        (0.34, 0.2, 0.08),
        (0.34, 0.2, 0.08),
        (0.34, 0.2, 0.08),
        (0.34, 0.2, 0.08),
        (0.34, 0.2, 0.08),
        (0.34, 0.2, 0.08),
        (0.34, 0.2, 0.08),
        (0.34, 0.2, 0.08),
        (0.34, 0.2, 0.08),
        (0.34, 0.2, 0.08),
        (0.34, 0.2, 0.08),
        (0.34, 0.2, 0.08),
        (0.34, 0.2, 0.08),
        (0.34, 0.2, 0.08),
        (0.34, 0.2, 0.08),
        (0.34, 0.2, 0.08),
        (0.34, 0.2, 0.08),
        (0.34, 0.2, 0.08),
        (0.34, 0.2, 0.08),
        (0.34, 0.2, 0.08),
        (0.34, 0.2, 0.08),
        (0.34, 0.2, 0.08),
        (0.34, 0.2, 0.08),
        (0.34, 0.2, 0.08),
        (0.34, 0.2, 0.08),
        (0.34, 0.2, 0.08),
        (0.18, 0.38, 0.08),
        (0.18, 0.38, 0.08),
        (0.18, 0.38, 0.08),
        (0.18, 0.38, 0.08),
        (0.18, 0.38, 0.08),
        (0.18, 0.38, 0.08),
        (0.18, 0.38, 0.08),
        (0.18, 0.38, 0.08),
        (0.18, 0.38, 0.08),
        (0.18, 0.38, 0.08),
        (0.18, 0.38, 0.08),
        (0.18, 0.38, 0.08),
        (0.18, 0.38, 0.08),
        (0.18, 0.38, 0.08),
        (0.18, 0.38, 0.08),
        (0.18, 0.38, 0.08),
        (0.18, 0.38, 0.08),
        (0.18, 0.38, 0.08),
        (0.18, 0.38, 0.08),
        (0.18, 0.38, 0.08),
        (0.18, 0.38, 0.08),
        (0.18, 0.38, 0.08),
        (0.34, 0.2, 0.08),
        (0.34, 0.2, 0.08),
        (0.34, 0.2, 0.08),
        (0.34, 0.2, 0.08),
        (0.34, 0.2, 0.08),
        (0.34, 0.2, 0.08),
        (0.34, 0.2, 0.08),
        (0.34, 0.2, 0.08),
        (0.34, 0.2, 0.08),
        (0.34, 0.2, 0.08),
        (0.34, 0.2, 0.08),
        (0.34, 0.2, 0.08),
        (0.18, 0.38, 0.08),
        (0.18, 0.38, 0.08),
        (0.18, 0.38, 0.08),
        (0.18, 0.38, 0.08),
        (0.18, 0.38, 0.08),
        (0.18, 0.38, 0.08),
        (0.18, 0.38, 0.08),
        (0.18, 0.38, 0.08),
        (0.18, 0.38, 0.08),
        (0.18, 0.38, 0.08),
        (0.18, 0.38, 0.08),
        (0.18, 0.38, 0.08),
        (0.18, 0.38, 0.08),
        (0.18, 0.38, 0.08),
        (0.18, 0.38, 0.08),
        (0.18, 0.38, 0.08),
        (0.18, 0.38, 0.08),
        (0.18, 0.38, 0.08),
        (0.18, 0.38, 0.08),
        (0.18, 0.38, 0.08),
        (0.18, 0.38, 0.08),
        (0.18, 0.38, 0.08),
        (0.18, 0.38, 0.08),
        (0.18, 0.38, 0.08),
        (0.18, 0.38, 0.08),
        (0.18, 0.38, 0.08),
        (0.34, 0.2, 0.08),
        (0.18, 0.38, 0.08),
        (0.18, 0.38, 0.08),
        (0.18, 0.38, 0.08),
        (0.18, 0.38, 0.08),
        (0.18, 0.38, 0.08),
        (0.18, 0.38, 0.08),
        (0.34, 0.2, 0.08),
        (0.34, 0.2, 0.08),
        (0.34, 0.2, 0.08),
        (0.34, 0.2, 0.08),
        (0.34, 0.2, 0.08),
        (0.34, 0.2, 0.08),
        (0.34, 0.2, 0.08),
        (0.34, 0.2, 0.08),
        (0.34, 0.2, 0.08),
        (0.34, 0.2, 0.08),
        (0.18, 0.38, 0.08),
        (0.18, 0.38, 0.08),
        (0.18, 0.38, 0.08),
        (0.18, 0.38, 0.08),
        (0.18, 0.38, 0.08),
        (0.18, 0.38, 0.08),
        (0.18, 0.38, 0.08),
        (0.18, 0.38, 0.08),
        (0.18, 0.38, 0.08),
        (0.18, 0.38, 0.08),
        (0.18, 0.38, 0.08),
        (0.18, 0.38, 0.08),
        (0.18, 0.38, 0.08),
        (0.18, 0.38, 0.08),
        (0.18, 0.38, 0.08),
        (0.18, 0.38, 0.08),
        (0.18, 0.38, 0.08),
        (0.18, 0.38, 0.08),
        (0.18, 0.38, 0.08),
        (0.18, 0.38, 0.08),
        (0.18, 0.38, 0.08),
        (0.18, 0.38, 0.08),
        (0.18, 0.38, 0.08),
        (0.18, 0.38, 0.08),
        (0.34, 0.2, 0.08),
        (0.34, 0.2, 0.08),
        (0.34, 0.2, 0.08),
        (0.34, 0.2, 0.08),
        (0.34, 0.2, 0.08),
        (0.18, 0.38, 0.08),
        (0.18, 0.38, 0.08),
        (0.18, 0.38, 0.08),
        (0.18, 0.38, 0.08),
        (0.18, 0.38, 0.08),
        (0.18, 0.38, 0.08),
        (0.18, 0.38, 0.08),
        (0.18, 0.38, 0.08),
        (0.34, 0.2, 0.08),
        (0.34, 0.2, 0.08),
        (0.34, 0.2, 0.08),
        (0.34, 0.2, 0.08),
        (0.34, 0.2, 0.08),
        (0.34, 0.2, 0.08),
        (0.34, 0.2, 0.08),
        (0.34, 0.2, 0.08),
        (0.34, 0.2, 0.08),
        (0.34, 0.2, 0.08),
        (0.34, 0.2, 0.08),
        (0.34, 0.2, 0.08),
        (0.34, 0.2, 0.08),
        (0.34, 0.2, 0.08),
        (0.34, 0.2, 0.08),
        (0.34, 0.2, 0.08),
        (0.34, 0.2, 0.08),
        (0.34, 0.2, 0.08),
        (0.34, 0.2, 0.08),
        (0.34, 0.2, 0.08),
        (0.34, 0.2, 0.08),
        (0.34, 0.2, 0.08),
        (0.34, 0.2, 0.08),
        (0.34, 0.2, 0.08),
        (0.34, 0.2, 0.08),
        (0.34, 0.2, 0.08),
        (0.34, 0.2, 0.08),
        (0.34, 0.2, 0.08),
        (0.34, 0.2, 0.08),
        (0.34, 0.2, 0.08),
        (0.34, 0.2, 0.08),
        (0.34, 0.2, 0.08),
        (0.34, 0.2, 0.08),
        (0.34, 0.2, 0.08),
        (0.34, 0.2, 0.08),
        (0.34, 0.2, 0.08),
        (0.34, 0.2, 0.08),
        (0.34, 0.2, 0.08),
        (0.34, 0.2, 0.08),
        (0.34, 0.2, 0.08),
        (0.34, 0.2, 0.08),
        (0.34, 0.2, 0.08),
        (0.34, 0.2, 0.08),
        (0.34, 0.2, 0.08),
        (0.34, 0.2, 0.08),
        (0.34, 0.2, 0.08),
        (0.34, 0.2, 0.08),
        (0.34, 0.2, 0.08),
        (0.34, 0.2, 0.08),
        (0.34, 0.2, 0.08),
        (0.34, 0.2, 0.08),
        (0.34, 0.2, 0.08),
        (0.34, 0.2, 0.08),
        (0.34, 0.2, 0.08),
        (0.34, 0.2, 0.08),
        (0.34, 0.2, 0.08),
        (0.34, 0.2, 0.08),
        (0.34, 0.2, 0.08),
        (0.34, 0.2, 0.08),
        (0.34, 0.2, 0.08),
        (0.34, 0.2, 0.08),
        (0.34, 0.2, 0.08),
        (0.34, 0.2, 0.08),
        (0.34, 0.2, 0.08),
        (0.34, 0.2, 0.08),
        (0.34, 0.2, 0.08),
        (0.34, 0.2, 0.08),
        (0.34, 0.2, 0.08),
        (0.34, 0.2, 0.08),
        (0.34, 0.2, 0.08),
        (0.34, 0.2, 0.08),
        (0.34, 0.2, 0.08),
        (0.34, 0.2, 0.08),
        (0.34, 0.2, 0.08),
        (0.34, 0.2, 0.08),
        (0.34, 0.2, 0.08),
        (0.34, 0.2, 0.08),
        (0.34, 0.2, 0.08),
        (0.34, 0.2, 0.08),
        (0.34, 0.2, 0.08),
        (0.34, 0.2, 0.08),
        (0.34, 0.2, 0.08),
        (0.34, 0.2, 0.08),
        (0.34, 0.2, 0.08),
        (0.34, 0.2, 0.08),
        (0.34, 0.2, 0.08),
        (0.34, 0.2, 0.08),
        (0.34, 0.2, 0.08),
        (0.34, 0.2, 0.08),
        (0.34, 0.2, 0.08),
        (0.34, 0.2, 0.08),
        (0.34, 0.2, 0.08),
        (0.34, 0.2, 0.08),
        (0.34, 0.2, 0.08),
        (0.34, 0.2, 0.08),
        (0.34, 0.2, 0.08),
        (0.34, 0.2, 0.08),
        (0.34, 0.2, 0.08),
        (0.34, 0.2, 0.08),
        (0.34, 0.2, 0.08),
        (0.34, 0.2, 0.08),
        (0.34, 0.2, 0.08),
        (0.34, 0.2, 0.08),
        (0.34, 0.2, 0.08),
        (0.34, 0.2, 0.08),
        (0.34, 0.2, 0.08),
        (0.34, 0.2, 0.08),
        (0.34, 0.2, 0.08),
        (0.34, 0.2, 0.08),
        (0.34, 0.2, 0.08),
        (0.34, 0.2, 0.08),
        (0.34, 0.2, 0.08),
        (0.34, 0.2, 0.08),
        (0.34, 0.2, 0.08),
        (0.34, 0.2, 0.08),
        (0.34, 0.2, 0.08),
        (0.34, 0.2, 0.08),
        (0.34, 0.2, 0.08),
        (0.34, 0.2, 0.08),
        (0.34, 0.2, 0.08),
        (0.34, 0.2, 0.08),
        (0.34, 0.2, 0.08),
        (0.34, 0.2, 0.08),
        (0.34, 0.2, 0.08),
        (0.34, 0.2, 0.08),
        (0.34, 0.2, 0.08),
        (0.34, 0.2, 0.08),
        (0.34, 0.2, 0.08),
        (0.34, 0.2, 0.08),
        (0.34, 0.2, 0.08),
        (0.34, 0.2, 0.08),
        (0.34, 0.2, 0.08),
        (0.18, 0.38, 0.08),
        (0.34, 0.2, 0.08),
        (0.18, 0.38, 0.08),
        (0.18, 0.38, 0.08),
        (0.18, 0.38, 0.08),
        (0.18, 0.38, 0.08),
        (0.18, 0.38, 0.08),
        (0.18, 0.38, 0.08),
        (0.34, 0.2, 0.08),
        (0.34, 0.2, 0.08),
        (0.18, 0.38, 0.08),
        (0.34, 0.2, 0.08),
        (0.34, 0.2, 0.08),
        (0.34, 0.2, 0.08),
        (0.18, 0.38, 0.08),
        (0.18, 0.38, 0.08),
        (0.18, 0.38, 0.08),
        (0.18, 0.38, 0.08),
        (0.18, 0.38, 0.08),
        (0.18, 0.38, 0.08),
        (0.34, 0.2, 0.08),
        (0.18, 0.38, 0.08),
        (0.18, 0.38, 0.08),
        (0.18, 0.38, 0.08),
        (0.18, 0.38, 0.08),
        (0.18, 0.38, 0.08),
        (0.18, 0.38, 0.08),
        (0.18, 0.38, 0.08),
        (0.18, 0.38, 0.08),
        (0.18, 0.38, 0.08),
        (0.18, 0.38, 0.08),
        (0.18, 0.38, 0.08),
        (0.18, 0.38, 0.08),
        (0.18, 0.38, 0.08),
        (0.18, 0.38, 0.08),
        (0.18, 0.38, 0.08),
        (0.18, 0.38, 0.08),
        (0.18, 0.38, 0.08),
        (0.18, 0.38, 0.08),
        (0.18, 0.38, 0.08),
        (0.18, 0.38, 0.08),
        (0.18, 0.38, 0.08),
        (0.18, 0.38, 0.08),
        (0.34, 0.2, 0.08),
        (0.18, 0.38, 0.08),
        (0.18, 0.38, 0.08),
        (0.18, 0.38, 0.08),
        (0.18, 0.38, 0.08),
        (0.18, 0.38, 0.08),
        (0.34, 0.2, 0.08),
        (0.18, 0.38, 0.08),
        (0.18, 0.38, 0.08),
        (0.18, 0.38, 0.08),
        (0.18, 0.38, 0.08),
        (0.18, 0.38, 0.08),
        (0.18, 0.38, 0.08),
        (0.18, 0.38, 0.08),
        (0.18, 0.38, 0.08),
        (0.34, 0.2, 0.08),
        (0.18, 0.38, 0.08),
        (0.18, 0.38, 0.08),
        (0.18, 0.38, 0.08),
        (0.18, 0.38, 0.08),
        (0.18, 0.38, 0.08),
        (0.18, 0.38, 0.08),
        (0.18, 0.38, 0.08),
        (0.18, 0.38, 0.08),
        (0.18, 0.38, 0.08),
        (0.18, 0.38, 0.08),
        (0.18, 0.38, 0.08),
        (0.18, 0.38, 0.08),
        (0.18, 0.38, 0.08),
        (0.18, 0.38, 0.08),
        (0.18, 0.38, 0.08),
        (0.34, 0.2, 0.08),
        (0.34, 0.2, 0.08),
        (0.18, 0.38, 0.08),
        (0.18, 0.38, 0.08),
        (0.18, 0.38, 0.08),
        (0.18, 0.38, 0.08),
        (0.18, 0.38, 0.08),
        (0.18, 0.38, 0.08),
        (0.34, 0.2, 0.08),
        (0.18, 0.38, 0.08),
        (0.18, 0.38, 0.08),
        (0.18, 0.38, 0.08),
        (0.34, 0.2, 0.08),
        (0.18, 0.38, 0.08),
        (0.18, 0.38, 0.08),
        (0.18, 0.38, 0.08),
        (0.18, 0.38, 0.08),
        (0.18, 0.38, 0.08),
        (0.18, 0.38, 0.08),
        (0.18, 0.38, 0.08),
        (0.18, 0.38, 0.08),
        (0.18, 0.38, 0.08),
        (0.18, 0.38, 0.08),
        (0.18, 0.38, 0.08),
        (0.18, 0.38, 0.08),
        (0.18, 0.38, 0.08),
        (0.34, 0.2, 0.08),
        (0.34, 0.2, 0.08),
        (0.34, 0.2, 0.08),
        (0.34, 0.2, 0.08),
        (0.18, 0.38, 0.08),
        (0.18, 0.38, 0.08),
        (0.18, 0.38, 0.08),
        (0.18, 0.38, 0.08),
        (0.18, 0.38, 0.08),
        (0.18, 0.38, 0.08),
        (0.18, 0.38, 0.08),
        (0.18, 0.38, 0.08),
        (0.34, 0.2, 0.08),
        (0.34, 0.2, 0.08),
        (0.34, 0.2, 0.08),
        (0.34, 0.2, 0.08),
        (0.18, 0.38, 0.08),
        (0.18, 0.38, 0.08),
        (0.18, 0.38, 0.08),
        (0.18, 0.38, 0.08),
        (0.18, 0.38, 0.08),
        (0.18, 0.38, 0.08),
        (0.18, 0.38, 0.08),
        (0.18, 0.38, 0.08),
        (0.18, 0.38, 0.08),
        (0.34, 0.2, 0.08),
        (0.34, 0.2, 0.08),
        (0.34, 0.2, 0.08),
        (0.18, 0.38, 0.08),
        (0.18, 0.38, 0.08),
        (0.18, 0.38, 0.08),
        (0.34, 0.2, 0.08),
        (0.34, 0.2, 0.08),
        (0.34, 0.2, 0.08),
        (0.18, 0.38, 0.08),
        (0.18, 0.38, 0.08),
        (0.34, 0.2, 0.08),
        (0.18, 0.38, 0.08),
        (0.18, 0.38, 0.08),
        (0.34, 0.2, 0.08),
        (0.34, 0.2, 0.08),
        (0.18, 0.38, 0.08),
        (0.18, 0.38, 0.08),
        (0.18, 0.38, 0.08),
        (0.34, 0.2, 0.08),
        (0.34, 0.2, 0.08),
        (0.18, 0.38, 0.08),
        (0.18, 0.38, 0.08),
        (0.18, 0.38, 0.08),
        (0.18, 0.38, 0.08),
        (0.18, 0.38, 0.08),
        (0.18, 0.38, 0.08),
        (0.34, 0.2, 0.08),
        (0.18, 0.38, 0.08),
        (0.18, 0.38, 0.08),
        (0.18, 0.38, 0.08),
        (0.34, 0.2, 0.08),
        (0.18, 0.38, 0.08),
        (0.18, 0.38, 0.08),
        (0.18, 0.38, 0.08),
        (0.18, 0.38, 0.08),
        (0.18, 0.38, 0.08),
        (0.18, 0.38, 0.08),
        (0.18, 0.38, 0.08),
        (0.34, 0.2, 0.08),
        (0.18, 0.38, 0.08),
        (0.18, 0.38, 0.08),
        (0.18, 0.38, 0.08),
        (0.18, 0.38, 0.08),
        (0.18, 0.38, 0.08),
        (0.34, 0.2, 0.08),
        (0.18, 0.38, 0.08),
        (0.34, 0.2, 0.08),
        (0.34, 0.2, 0.08),
        (0.18, 0.38, 0.08),
        (0.34, 0.2, 0.08),
        (0.18, 0.38, 0.08),
        (0.34, 0.2, 0.08),
        (0.34, 0.2, 0.08),
        (0.18, 0.38, 0.08),
        (0.18, 0.38, 0.08),
        (0.18, 0.38, 0.08),
        (0.18, 0.38, 0.08),
        (0.18, 0.38, 0.08),
        (0.18, 0.38, 0.08),
        (0.34, 0.2, 0.08),
        (0.18, 0.38, 0.08),
        (0.34, 0.2, 0.08),
        (0.18, 0.38, 0.08),
        (0.34, 0.2, 0.08),
        (0.34, 0.2, 0.08),
        (0.18, 0.38, 0.08),
        (0.18, 0.38, 0.08),
        (0.18, 0.38, 0.08),
        (0.18, 0.38, 0.08),
        (0.18, 0.38, 0.08),
        (0.34, 0.2, 0.08),
        (0.18, 0.38, 0.08),
        (0.18, 0.38, 0.08),
        (0.34, 0.2, 0.08),
        (0.34, 0.2, 0.08),
        (0.18, 0.38, 0.08),
        (0.18, 0.38, 0.08),
        (0.18, 0.38, 0.08),
        (0.18, 0.38, 0.08),
        (0.34, 0.2, 0.08),
        (0.34, 0.2, 0.08),
        (0.18, 0.38, 0.08),
        (0.18, 0.38, 0.08),
        (0.18, 0.38, 0.08),
        (0.34, 0.2, 0.08),
        (0.18, 0.38, 0.08),
        (0.18, 0.38, 0.08),
        (0.18, 0.38, 0.08),
        (0.18, 0.38, 0.08),
        (0.18, 0.38, 0.08),
        (0.18, 0.38, 0.08),
        (0.18, 0.38, 0.08),
        (0.18, 0.38, 0.08),
        (0.34, 0.2, 0.08),
        (0.18, 0.38, 0.08),
        (0.18, 0.38, 0.08),
        (0.18, 0.38, 0.08),
        (0.18, 0.38, 0.08),
        (0.18, 0.38, 0.08),
        (0.18, 0.38, 0.08),
        (0.18, 0.38, 0.08),
        (0.18, 0.38, 0.08),
        (0.18, 0.38, 0.08),
        (0.34, 0.2, 0.08),
        (0.34, 0.2, 0.08),
        (0.18, 0.38, 0.08),
        (0.18, 0.38, 0.08),
        (0.18, 0.38, 0.08),
        (0.34, 0.2, 0.08),
        (0.18, 0.38, 0.08),
        (0.34, 0.2, 0.08),
        (0.18, 0.38, 0.08),
        (0.34, 0.2, 0.08),
        (0.34, 0.2, 0.08),
        (0.18, 0.38, 0.08),
        (0.34, 0.2, 0.08),
        (0.18, 0.38, 0.08),
        (0.34, 0.2, 0.08),
        (0.34, 0.2, 0.08),
        (0.34, 0.2, 0.08),
        (0.18, 0.38, 0.08)
    ] (
        interpolation = "vertex"
    )
    uniform token subdivisionScheme = "none"
}
