#usda 1.0
(
    defaultPrim = "Ground"
    metersPerUnit = 1
    upAxis = "Z"
)

def Mesh "Ground"
{
    uniform bool doubleSided = 1
    float3[] extent = [(0, 0, -0.8), (16, 16, 0)]
    int[] faceVertexCounts = [3, 3, 3, 3, 3, 3, 3, 3, 3, 3, 3, 3, 3, 3, 3, 3, 3, 3, 3, 3, 3, 3, 3, 3, 3, 3, 3, 3, 3, 3, 3, 3, 3, 3, 3, 3, 3, 3, 3, 3, 3, 3, 3, 3, 3, 3, 3, 3, 3, 3, 3, 3, 3, 3, 3, 3, 3, 3, 3, 3, 3, 3, 3, 3, 3, 3, 3, 3, 3, 3, 3, 3, 3, 3, 3, 3, 3, 3, 3, 3, 3, 3, 3, 3, 3, 3, 3, 3, 3, 3, 3, 3, 3, 3, 3, 3, 3, 3, 3, 3, 3, 3, 3, 3, 3, 3, 3, 3, 3, 3, 3, 3, 3, 3, 3, 3, 3, 3, 3, 3, 3, 3, 3, 3, 3, 3, 3, 3, 3, 3, 3, 3, 3, 3, 3, 3, 3, 3, 3, 3, 3, 3, 3, 3, 3, 3, 3, 3, 3, 3, 3, 3, 3, 3, 3, 3, 3, 3, 3, 3, 3, 3, 3, 3, 3, 3, 3, 3, 3, 3, 3, 3, 3, 3, 3, 3, 3, 3, 3, 3, 3, 3, 3, 3, 3, 3, 3, 3, 3, 3, 3, 3, 3, 3, 3, 3, 3, 3, 3, 3, 3, 3, 3, 3, 3, 3, 3, 3, 3, 3, 3, 3, 3, 3, 3, 3, 3, 3, 3, 3, 3, 3, 3, 3, 3, 3, 3, 3, 3, 3, 3, 3, 3, 3, 3, 3, 3, 3, 3, 3, 3, 3, 3, 3, 3, 3, 3, 3, 3, 3, 3, 3, 3, 3, 3, 3, 3, 3, 3, 3, 3, 3, 3, 3, 3, 3, 3, 3, 3, 3, 3, 3, 3, 3, 3, 3, 3, 3, 3, 3, 3, 3, 3, 3, 3, 3, 3, 3, 3, 3, 3, 3, 3, 3, 3, 3, 3, 3, 3, 3, 3, 3, 3, 3, 3, 3, 3, 3, 3, 3, 3, 3, 3, 3, 3, 3, 3, 3, 3, 3, 3, 3, 3, 3, 3, 3, 3, 3, 3, 3, 3, 3, 3, 3, 3, 3, 3, 3, 3, 3, 3, 3, 3, 3, 3, 3, 3, 3, 3, 3, 3, 3, 3, 3, 3, 3, 3, 3, 3, 3, 3, 3, 3, 3, 3, 3, 3, 3, 3, 3, 3, 3, 3, 3, 3, 3, 3, 3, 3, 3, 3, 3, 3, 3, 3, 3, 3, 3, 3, 3, 3, 3, 3, 3, 3, 3, 3, 3, 3, 3, 3, 3, 3, 3, 3, 3, 3, 3, 3, 3, 3, 3, 3, 3, 3, 3, 3, 3, 3, 3, 3, 3, 3, 3, 3, 3, 3, 3, 3, 3, 3, 3, 3, 3, 3, 3, 3, 3, 3, 3, 3, 3, 3, 3, 3, 3, 3, 3, 3, 3, 3, 3, 3, 3, 3, 3, 3, 3, 3, 3, 3, 3, 3, 3, 3, 3, 3, 3, 3, 3, 3, 3, 3, 3, 3, 3, 3, 3, 3, 3, 3, 3, 3, 3, 3, 3, 3, 3, 3, 3, 3, 3, 3, 3, 3, 3, 3, 3, 3, 3, 3, 3, 3, 3, 3, 3, 3, 3, 3, 3, 3, 3, 3, 3, 3, 3, 3, 3, 3, 3, 3, 3, 3, 3, 3, 3, 3, 3, 3, 3, 3, 3, 3, 3, 3, 3, 3, 3, 3, 3, 3, 3, 3, 3, 3, 3, 3, 3, 3, 3, 3, 3, 3, 3, 3, 3, 3, 3, 3, 3, 3, 3, 3, 3, 3, 3, 3, 3, 3, 3, 3, 3, 3, 3, 3, 3, 3, 3, 3, 3, 3, 3, 3, 3, 3, 3, 3, 3, 3, 3, 3, 3, 3, 3, 3, 3, 3, 3, 3, 3, 3, 3, 3, 3, 3, 3, 3, 3, 3, 3, 3, 3, 3, 3, 3, 3, 3, 3, 3, 3, 3, 3, 3, 3, 3, 3, 3, 3, 3, 3, 3, 3, 3, 3, 3, 3, 3, 3, 3, 3, 3, 3, 3, 3, 3, 3, 3, 3, 3, 3, 3, 3, 3, 3, 3, 3, 3, 3, 3, 3, 3, 3, 3, 3, 3, 3, 3, 3, 3, 3, 3, 3, 3, 3, 3, 3, 3, 3, 3, 3, 3, 3, 3, 3, 3, 3, 3, 3, 3, 3, 3, 3, 3, 3, 3, 3, 3, 3, 3, 3, 3, 3, 3, 3, 3, 3, 3, 3, 3, 3, 3, 3, 3, 3, 3, 3, 3, 3, 3, 3, 3, 3, 3, 3, 3, 3, 3, 3, 3, 3, 3, 3, 3, 3, 3, 3, 3, 3, 3, 3, 3, 3, 3, 3, 3, 3, 3, 3, 3, 3, 3, 3, 3, 3, 3, 3, 3, 3, 3, 3, 3, 3, 3, 3, 3, 3, 3, 3, 3, 3, 3, 3, 3, 3, 3, 3, 3, 3, 3, 3, 3, 3, 3, 3, 3, 3, 3, 3, 3, 3, 3, 3, 3, 3, 3, 3, 3, 3, 3, 3, 3, 3, 3, 3, 3, 3, 3, 3, 3, 3, 3, 3, 3, 3, 3, 3, 3, 3, 3, 3, 3, 3, 3, 3, 3, 3, 3, 3, 3, 3, 3, 3, 3, 3, 3, 3, 3, 3, 3, 3, 3, 3, 3, 3, 3, 3, 3, 3, 3, 3, 3, 3, 3, 3, 3, 3, 3, 3, 3, 3, 3, 3, 3, 3, 3, 3, 3, 3, 3, 3, 3, 3, 3, 3, 3, 3, 3, 3, 3, 3, 3, 3, 3, 3, 3, 3, 3, 3, 3, 3, 3, 3, 3, 3, 3, 3, 3, 3, 3, 3, 3, 3, 3, 3, 3, 3, 3, 3, 3, 3, 3, 3, 3, 3, 3, 3, 3, 3, 3, 3, 3, 3, 3, 3, 3, 3, 3, 3, 3, 3, 3, 3, 3, 3, 3, 3, 3, 3, 3, 3, 3, 3, 3, 3, 3, 3, 3, 3, 3, 3, 3, 3, 3, 3, 3, 3, 3, 3, 3, 3, 3, 3, 3, 3, 3, 3, 3, 3, 3, 3, 3, 3, 3, 3, 3, 3, 3, 3, 3, 3, 3, 3, 3, 3, 3, 3, 3, 3, 3, 3, 3, 3, 3, 3, 3, 3, 3, 3, 3, 3, 3, 3, 3, 3, 3, 3, 3, 3, 3, 3, 3, 3, 3, 3, 3, 3, 3, 3, 3, 3, 3, 3, 3, 3, 3, 3, 3, 3, 3, 3, 3, 3, 3, 3, 3, 3, 3, 3, 3, 3, 3, 3, 3, 3, 3, 3, 3, 3, 3, 3, 3, 3, 3, 3]
    int[] faceVertexIndices = [557, 487, 491, 532, 548, 78, 205, 206, 345, 515, 468, 494, 403, 398, 404, 400, 420, 422, 394, 111, 415, 355, 359, 358, 498, 496, 427, 268, 267, 150, 438, 33, 269, 85, 193, 192, 469, 462, 470, 515, 516, 522, 353, 275, 26, 398, 131, 404, 350, 360, 352, 135, 136, 251, 133, 134, 249, 376, 348, 372, 161, 293, 294, 272, 271, 153, 118, 117, 511, 419, 418, 222, 458, 459, 551, 122, 476, 123, 88, 87, 440, 83, 84, 191, 521, 16, 17, 434, 436, 433, 141, 477, 443, 239, 125, 126, 287, 335, 337, 289, 290, 385, 142, 141, 443, 465, 467, 413, 489, 491, 406, 165, 164, 339, 520, 492, 128, 332, 147, 146, 204, 95, 96, 280, 281, 307, 333, 334, 332, 150, 149, 391, 379, 387, 371, 441, 154, 153, 139, 140, 256, 480, 105, 479, 393, 396, 392, 228, 229, 409, 540, 51, 238, 207, 544, 233, 525, 517, 541, 554, 534, 524, 456, 494, 457, 327, 203, 204, 449, 463, 460, 81, 82, 189, 445, 450, 444, 354, 206, 169, 494, 493, 515, 74, 73, 504, 530, 242, 47, 168, 143, 290, 106, 217, 216, 478, 477, 488, 531, 127, 126, 143, 260, 290, 385, 247, 248, 132, 398, 133, 533, 124, 485, 475, 443, 476, 121, 142, 475, 259, 417, 258, 381, 384, 112, 283, 282, 163, 340, 253, 338, 329, 199, 283, 325, 330, 303, 325, 304, 313, 168, 167, 362, 367, 148, 334, 304, 303, 298, 308, 315, 309, 308, 295, 306, 307, 281, 201, 266, 148, 149, 455, 270, 31, 269, 270, 455, 375, 376, 442, 293, 160, 291, 441, 446, 154, 276, 345, 346, 279, 278, 159, 257, 258, 418, 397, 415, 413, 415, 110, 414, 473, 466, 479, 140, 141, 257, 388, 194, 195, 116, 229, 228, 401, 364, 87, 241, 47, 48, 554, 525, 534, 101, 211, 210, 232, 233, 538, 120, 535, 98, 100, 101, 210, 552, 457, 494, 201, 202, 307, 402, 374, 500, 350, 373, 360, 544, 549, 188, 78, 77, 532, 77, 184, 183, 504, 512, 74, 449, 444, 450, 206, 97, 64, 462, 463, 449, 471, 70, 69, 460, 67, 444, 490, 71, 70, 528, 77, 76, 240, 127, 241, 530, 47, 241, 555, 491, 489, 243, 244, 472, 124, 238, 237, 557, 555, 536, 533, 485, 557, 125, 124, 533, 244, 245, 412, 132, 131, 398, 244, 129, 130, 405, 131, 130, 359, 355, 377, 133, 398, 403, 135, 251, 250, 166, 314, 336, 541, 104, 103, 478, 488, 485, 486, 485, 124, 236, 235, 122, 110, 109, 414, 383, 255, 256, 141, 140, 477, 335, 287, 288, 357, 139, 355, 329, 284, 341, 139, 138, 355, 377, 355, 136, 164, 284, 283, 283, 163, 164, 343, 380, 225, 312, 313, 302, 330, 144, 143, 261, 143, 144, 333, 310, 317, 312, 146, 145, 361, 333, 317, 301, 296, 292, 339, 315, 165, 300, 306, 295, 282, 283, 322, 323, 324, 200, 318, 292, 316, 297, 291, 160, 320, 307, 202, 369, 424, 95, 36, 266, 35, 332, 148, 147, 266, 267, 395, 30, 271, 29, 376, 372, 442, 361, 376, 375, 390, 153, 152, 272, 153, 154, 297, 292, 291, 274, 155, 156, 275, 274, 156, 271, 272, 454, 446, 344, 155, 348, 344, 372, 65, 371, 439, 26, 354, 25, 121, 235, 234, 453, 397, 413, 221, 222, 417, 57, 58, 218, 60, 216, 59, 473, 451, 453, 452, 396, 451, 396, 397, 453, 452, 392, 396, 200, 199, 91, 87, 195, 194, 229, 116, 117, 230, 229, 117, 86, 87, 194, 229, 230, 497, 59, 216, 217, 518, 509, 507, 518, 507, 479, 102, 103, 213, 62, 213, 214, 209, 208, 99, 119, 231, 118, 526, 535, 523, 501, 231, 232, 459, 82, 550, 208, 98, 99, 186, 79, 80, 459, 550, 551, 199, 200, 324, 360, 374, 482, 450, 435, 436, 356, 360, 482, 364, 401, 410, 84, 83, 426, 456, 500, 496, 493, 495, 537, 559, 553, 537, 416, 426, 421, 548, 546, 78, 187, 80, 81, 512, 76, 75, 522, 76, 512, 179, 513, 15, 6, 7, 188, 170, 169, 64, 482, 368, 370, 68, 67, 460, 445, 444, 439, 434, 457, 436, 67, 68, 173, 173, 68, 174, 463, 462, 471, 514, 502, 470, 177, 71, 72, 175, 176, 510, 490, 503, 71, 514, 512, 502, 180, 179, 73, 521, 178, 16, 242, 241, 127, 242, 128, 243, 128, 129, 243, 127, 128, 242, 129, 128, 492, 43, 246, 42, 472, 45, 243, 239, 240, 539, 239, 539, 540, 51, 540, 50, 492, 520, 489, 555, 531, 536, 448, 491, 487, 447, 406, 491, 246, 245, 131, 245, 246, 431, 46, 243, 45, 246, 247, 430, 132, 246, 131, 260, 247, 290, 385, 249, 289, 143, 168, 330, 407, 403, 404, 403, 407, 134, 135, 407, 377, 491, 448, 447, 386, 288, 289, 250, 249, 134, 134, 135, 250, 167, 166, 336, 122, 475, 476, 51, 52, 238, 55, 474, 234, 53, 235, 236, 486, 123, 476, 235, 121, 122, 357, 477, 140, 477, 358, 488, 55, 234, 54, 53, 54, 235, 432, 221, 417, 474, 432, 234, 432, 417, 259, 222, 221, 110, 224, 225, 380, 257, 419, 256, 357, 355, 358, 137, 355, 138, 285, 342, 340, 342, 251, 252, 343, 197, 338, 255, 138, 139, 380, 343, 255, 365, 88, 440, 286, 287, 337, 287, 286, 166, 342, 285, 286, 252, 253, 342, 285, 284, 164, 138, 255, 254, 254, 343, 338, 88, 89, 196, 262, 261, 144, 41, 260, 40, 262, 263, 331, 38, 39, 331, 305, 303, 336, 303, 304, 325, 300, 298, 305, 332, 312, 311, 36, 37, 265, 263, 145, 146, 267, 266, 149, 266, 36, 265, 304, 302, 313, 291, 292, 296, 302, 311, 312, 301, 310, 299, 305, 298, 303, 308, 162, 294, 315, 308, 306, 163, 162, 309, 282, 324, 323, 322, 283, 199, 201, 92, 93, 162, 282, 281, 161, 160, 293, 321, 297, 160, 206, 205, 97, 292, 297, 316, 160, 161, 280, 323, 201, 281, 321, 159, 347, 160, 280, 279, 266, 265, 148, 264, 265, 37, 153, 390, 442, 270, 269, 151, 268, 269, 411, 24, 170, 23, 271, 30, 270, 438, 269, 455, 348, 376, 318, 333, 361, 334, 375, 442, 390, 391, 366, 390, 270, 151, 152, 271, 270, 152, 32, 438, 31, 31, 270, 30, 321, 316, 297, 159, 158, 347, 328, 344, 348, 344, 328, 157, 455, 31, 438, 28, 273, 27, 155, 154, 446, 274, 275, 353, 96, 378, 379, 379, 97, 96, 158, 157, 328, 96, 97, 205, 157, 277, 276, 275, 276, 346, 25, 169, 24, 354, 26, 275, 432, 220, 221, 219, 220, 56, 108, 219, 218, 467, 107, 106, 222, 110, 111, 384, 393, 392, 394, 397, 393, 110, 415, 111, 217, 106, 107, 59, 217, 505, 106, 105, 480, 473, 453, 466, 479, 105, 506, 396, 453, 451, 230, 117, 118, 452, 508, 116, 226, 225, 113, 392, 115, 114, 89, 197, 196, 226, 113, 114, 389, 196, 197, 382, 195, 196, 364, 400, 363, 351, 365, 364, 116, 115, 452, 392, 452, 115, 193, 497, 483, 497, 193, 409, 440, 87, 364, 401, 86, 408, 428, 427, 421, 193, 85, 86, 542, 215, 61, 214, 215, 542, 102, 212, 211, 215, 214, 104, 104, 541, 517, 526, 524, 535, 517, 554, 518, 99, 535, 545, 63, 212, 213, 211, 212, 1, 0, 1, 212, 541, 102, 101, 2, 3, 210, 208, 209, 556, 100, 545, 524, 100, 99, 545, 231, 484, 230, 230, 483, 497, 119, 232, 231, 535, 120, 523, 483, 230, 484, 427, 420, 421, 83, 82, 459, 538, 190, 232, 556, 209, 4, 3, 4, 209, 556, 5, 208, 5, 6, 549, 544, 188, 189, 190, 538, 189, 79, 78, 546, 188, 7, 187, 89, 365, 90, 373, 363, 400, 350, 352, 349, 352, 356, 92, 319, 203, 327, 360, 356, 352, 402, 482, 374, 482, 402, 368, 408, 410, 401, 423, 373, 422, 427, 428, 498, 498, 428, 559, 433, 402, 434, 423, 500, 374, 470, 462, 468, 493, 494, 456, 458, 429, 459, 499, 458, 551, 559, 499, 553, 546, 548, 551, 558, 547, 187, 7, 8, 558, 185, 186, 9, 8, 9, 547, 552, 494, 468, 528, 522, 516, 528, 527, 77, 532, 77, 527, 185, 184, 78, 9, 10, 185, 11, 183, 184, 11, 543, 183, 387, 379, 378, 326, 204, 205, 387, 425, 439, 424, 368, 437, 64, 97, 371, 172, 22, 171, 173, 172, 67, 66, 439, 67, 462, 464, 468, 444, 449, 460, 444, 67, 439, 68, 460, 463, 22, 461, 21, 461, 22, 172, 463, 471, 69, 461, 173, 21, 515, 522, 529, 522, 512, 514, 176, 70, 71, 469, 490, 471, 510, 176, 19, 177, 72, 178, 18, 176, 177, 182, 181, 75, 180, 181, 13, 181, 180, 74, 513, 180, 14, 179, 180, 513, 178, 179, 15, 174, 21, 173, 179, 178, 72, 241, 242, 530, 531, 126, 536, 49, 240, 241, 40, 261, 39, 520, 127, 531, 128, 127, 520, 244, 243, 129, 47, 242, 46, 555, 489, 520, 129, 492, 405, 44, 412, 43, 245, 130, 131, 472, 244, 44, 539, 240, 50, 49, 50, 240, 240, 126, 127, 240, 239, 126, 540, 238, 239, 125, 239, 238, 124, 123, 486, 124, 125, 238, 531, 555, 520, 491, 555, 557, 487, 557, 485, 125, 533, 536, 405, 489, 406, 405, 492, 489, 359, 447, 448, 359, 407, 399, 45, 472, 44, 412, 245, 43, 245, 244, 130, 405, 130, 129, 431, 43, 245, 247, 246, 132, 431, 246, 43, 430, 247, 41, 260, 41, 247, 42, 430, 41, 132, 248, 247, 132, 133, 248, 385, 290, 247, 290, 289, 168, 405, 404, 131, 407, 404, 399, 335, 386, 250, 134, 133, 403, 447, 399, 406, 447, 359, 399, 252, 251, 136, 407, 135, 134, 248, 249, 385, 248, 133, 249, 386, 289, 249, 167, 289, 288, 335, 250, 251, 249, 250, 386, 386, 335, 288, 167, 288, 166, 52, 53, 236, 123, 237, 236, 52, 236, 237, 54, 234, 235, 475, 122, 121, 236, 122, 123, 478, 476, 443, 486, 476, 485, 475, 142, 443, 478, 443, 477, 448, 488, 358, 448, 487, 488, 140, 257, 256, 357, 140, 139, 56, 474, 55, 109, 220, 219, 474, 220, 432, 142, 259, 258, 142, 121, 259, 109, 221, 220, 109, 110, 221, 418, 258, 417, 142, 258, 141, 419, 222, 223, 417, 222, 418, 258, 257, 141, 418, 419, 257, 112, 111, 381, 383, 419, 224, 136, 135, 377, 359, 377, 407, 138, 254, 253, 137, 138, 253, 137, 136, 355, 137, 252, 136, 253, 340, 342, 137, 253, 252, 380, 383, 224, 380, 255, 383, 223, 224, 419, 394, 381, 111, 343, 254, 255, 254, 338, 253, 225, 226, 389, 389, 343, 225, 342, 286, 337, 286, 285, 165, 287, 166, 288, 315, 166, 165, 284, 340, 338, 284, 285, 340, 286, 165, 166, 164, 165, 285, 341, 338, 197, 341, 284, 338, 339, 164, 163, 329, 283, 284, 197, 198, 341, 389, 197, 343, 329, 341, 198, 198, 89, 90, 260, 143, 261, 39, 261, 262, 325, 144, 330, 262, 144, 145, 39, 262, 331, 38, 331, 263, 262, 145, 263, 325, 145, 144, 303, 362, 336, 303, 330, 362, 167, 336, 362, 305, 336, 314, 145, 313, 312, 145, 325, 313, 302, 299, 310, 302, 304, 298, 312, 332, 146, 38, 263, 37, 264, 146, 147, 264, 263, 146, 35, 395, 34, 265, 147, 148, 265, 264, 147, 302, 310, 311, 332, 311, 333, 298, 299, 302, 299, 298, 296, 148, 332, 334, 310, 333, 311, 361, 317, 318, 301, 317, 310, 305, 306, 300, 315, 314, 166, 300, 296, 298, 295, 294, 291, 308, 309, 162, 339, 309, 315, 295, 308, 294, 162, 161, 294, 324, 322, 199, 324, 282, 322, 198, 199, 329, 351, 90, 365, 161, 162, 281, 323, 281, 282, 349, 352, 91, 200, 201, 323, 295, 291, 296, 293, 291, 294, 160, 279, 159, 321, 160, 159, 317, 292, 318, 317, 301, 292, 278, 279, 319, 327, 278, 319, 281, 280, 161, 307, 320, 280, 319, 320, 203, 202, 93, 94, 320, 279, 280, 320, 319, 279, 202, 203, 320, 369, 94, 368, 395, 267, 34, 268, 34, 267, 367, 149, 148, 267, 149, 150, 32, 33, 438, 150, 391, 151, 367, 391, 149, 34, 268, 33, 411, 269, 33, 269, 268, 151, 268, 150, 151, 454, 29, 271, 361, 375, 366, 367, 366, 391, 347, 348, 316, 361, 318, 376, 151, 391, 152, 375, 390, 366, 441, 442, 372, 441, 153, 442, 390, 152, 391, 271, 152, 153, 481, 29, 454, 29, 481, 28, 273, 272, 154, 481, 454, 272, 328, 347, 158, 328, 348, 347, 278, 277, 158, 157, 158, 277, 446, 372, 344, 446, 441, 372, 345, 276, 277, 155, 344, 156, 155, 274, 273, 481, 273, 28, 274, 27, 273, 157, 156, 344, 354, 275, 346, 353, 27, 274, 345, 277, 205, 327, 326, 278, 96, 95, 424, 327, 204, 326, 276, 275, 156, 156, 157, 276, 326, 205, 277, 96, 205, 204, 206, 346, 345, 206, 354, 346, 26, 27, 353, 170, 64, 65, 206, 64, 169, 169, 25, 354, 108, 109, 219, 57, 219, 56, 108, 414, 109, 108, 415, 414, 465, 108, 107, 57, 218, 219, 415, 108, 465, 467, 465, 107, 415, 397, 394, 381, 394, 393, 224, 112, 113, 224, 223, 112, 465, 413, 415, 453, 413, 466, 396, 393, 397, 381, 393, 384, 217, 218, 505, 505, 218, 58, 218, 107, 108, 218, 217, 107, 61, 215, 60, 105, 106, 216, 480, 479, 466, 106, 480, 466, 467, 466, 413, 467, 106, 466, 519, 518, 554, 473, 479, 507, 508, 507, 509, 508, 452, 451, 451, 507, 508, 451, 473, 507, 384, 114, 113, 382, 226, 227, 226, 382, 389, 388, 382, 227, 227, 114, 115, 114, 384, 392, 388, 227, 228, 114, 227, 226, 198, 197, 89, 365, 89, 88, 87, 88, 195, 388, 195, 382, 199, 90, 91, 199, 198, 90, 349, 351, 363, 440, 364, 365, 228, 409, 388, 194, 388, 409, 508, 117, 116, 230, 118, 231, 497, 409, 229, 194, 409, 193, 191, 192, 484, 84, 85, 192, 87, 86, 401, 194, 193, 86, 85, 408, 86, 420, 408, 416, 483, 192, 193, 84, 192, 191, 85, 416, 408, 85, 84, 416, 215, 105, 216, 215, 104, 105, 61, 62, 542, 62, 214, 542, 541, 103, 102, 214, 103, 104, 103, 214, 213, 517, 518, 506, 105, 104, 506, 519, 554, 526, 525, 554, 517, 519, 509, 518, 509, 523, 511, 519, 523, 509, 545, 535, 524, 212, 63, 0, 525, 541, 534, 211, 101, 102, 1, 2, 211, 101, 534, 541, 101, 100, 534, 2, 210, 211, 100, 210, 209, 554, 524, 526, 100, 524, 534, 99, 100, 209, 3, 209, 210, 508, 511, 117, 523, 119, 511, 501, 232, 190, 501, 190, 191, 519, 526, 523, 119, 523, 120, 120, 232, 119, 233, 232, 120, 231, 501, 484, 83, 191, 190, 84, 426, 416, 459, 426, 83, 82, 190, 189, 82, 83, 190, 81, 550, 82, 79, 546, 80, 207, 208, 5, 535, 99, 98, 4, 5, 556, 208, 207, 98, 538, 233, 544, 207, 549, 544, 207, 5, 549, 544, 189, 538, 81, 189, 188, 6, 188, 549, 81, 188, 187, 550, 81, 80, 558, 187, 7, 547, 558, 8, 351, 91, 90, 350, 349, 363, 364, 363, 351, 350, 363, 373, 201, 200, 92, 352, 92, 91, 360, 373, 374, 373, 423, 374, 370, 94, 93, 356, 370, 93, 370, 368, 94, 370, 356, 482, 203, 94, 95, 203, 202, 94, 433, 368, 402, 369, 368, 424, 408, 420, 410, 373, 400, 422, 427, 422, 420, 423, 422, 496, 416, 421, 420, 458, 428, 429, 495, 498, 559, 422, 427, 496, 493, 456, 495, 423, 496, 500, 500, 434, 402, 500, 456, 434, 496, 495, 456, 496, 498, 495, 433, 436, 435, 434, 456, 457, 499, 428, 458, 426, 459, 429, 499, 559, 428, 515, 493, 516, 546, 551, 550, 499, 551, 548, 548, 553, 499, 548, 532, 553, 186, 187, 547, 79, 186, 185, 547, 9, 186, 185, 78, 79, 77, 78, 184, 184, 185, 10, 516, 537, 527, 528, 516, 527, 514, 529, 522, 529, 514, 470, 553, 527, 537, 553, 532, 527, 182, 183, 543, 528, 76, 522, 10, 11, 184, 183, 182, 76, 76, 77, 183, 543, 12, 182, 181, 182, 12, 11, 12, 543, 424, 437, 425, 378, 424, 425, 96, 424, 378, 387, 378, 425, 433, 437, 368, 433, 435, 437, 435, 425, 437, 435, 445, 425, 66, 65, 439, 23, 170, 171, 170, 24, 169, 387, 439, 371, 445, 439, 425, 65, 171, 170, 65, 66, 171, 449, 450, 464, 435, 450, 445, 552, 464, 457, 449, 464, 462, 172, 173, 461, 66, 67, 172, 463, 69, 68, 174, 68, 69, 23, 171, 22, 171, 66, 172, 21, 174, 20, 510, 20, 175, 20, 510, 19, 515, 529, 468, 469, 470, 502, 504, 502, 512, 490, 469, 503, 469, 471, 462, 70, 471, 490, 502, 503, 469, 502, 504, 503, 176, 175, 70, 174, 175, 20, 19, 176, 18, 18, 177, 17, 71, 177, 176, 521, 177, 178, 181, 74, 75, 73, 74, 180, 12, 13, 181, 503, 73, 71, 503, 504, 73, 13, 14, 180, 73, 72, 71, 73, 179, 72, 14, 15, 513, 521, 17, 177, 15, 16, 178, 49, 241, 48, 243, 46, 242, 539, 50, 540, 125, 536, 126, 557, 536, 533, 412, 44, 244, 430, 42, 246, 404, 406, 399, 404, 405, 406, 123, 124, 237, 52, 237, 238, 478, 485, 476, 487, 485, 488, 259, 234, 432, 259, 121, 234, 448, 358, 359, 357, 358, 477, 383, 256, 419, 139, 256, 255, 251, 337, 335, 251, 342, 337, 261, 40, 260, 167, 168, 289, 362, 330, 168, 264, 37, 263, 315, 306, 314, 306, 305, 314, 162, 163, 282, 309, 339, 163, 299, 296, 301, 295, 296, 300, 395, 35, 266, 411, 33, 268, 366, 334, 361, 366, 367, 334, 347, 316, 321, 318, 316, 348, 273, 154, 155, 272, 273, 481, 277, 278, 326, 158, 159, 278, 474, 56, 220, 223, 111, 112, 223, 222, 111, 58, 59, 505, 225, 224, 113, 384, 113, 112, 382, 196, 389, 88, 196, 195, 228, 115, 116, 228, 227, 115, 216, 60, 215, 517, 506, 104, 479, 506, 518, 63, 213, 62, 102, 213, 212, 118, 511, 119, 509, 511, 508, 191, 484, 501, 483, 484, 192, 233, 98, 207, 233, 120, 98, 349, 91, 351, 200, 91, 92, 202, 201, 93, 356, 93, 92, 400, 410, 420, 400, 364, 410, 421, 429, 428, 421, 426, 429, 187, 186, 80, 550, 80, 546, 493, 537, 516, 559, 537, 495, 204, 203, 95, 369, 95, 94, 65, 64, 371, 379, 371, 97, 464, 436, 457, 464, 450, 436, 470, 468, 529, 552, 468, 464, 175, 69, 70, 175, 174, 69, 512, 75, 74, 182, 75, 76]
    point3f[] points = [
        (16, 0, -0.8),
        (16, 1, -0.8),
        (16, 2, -0.8),
        (16, 3, -0.8),
        (16, 4, -0.8),
        (16, 5, -0.8),
        (16, 6, -0.8),
        (16, 7, -0.8),
        (16, 8, -0.8),
        (16, 9, -0.8),
        (16, 10, -0.8),
        (16, 11, -0.8),
        (16, 12, -0.8),
        (16, 13, -0.8),
        (16, 14, -0.8),
        (16, 15, -0.8),
        (16, 16, -0.8),
        (15, 16, -0.8),
        (14, 16, -0.8),
        (13, 16, -0.8),
        (12, 16, -0.8),
        (11, 16, -0.8),
        (10, 16, -0.8),
        (9, 16, -0.8),
        (8, 16, -0.8),
        (7, 16, -0.8),
        (6, 16, -0.8),
        (5, 16, -0.8),
        (4, 16, -0.8),
        (3, 16, -0.8),
        (2, 16, -0.8),
        (1, 16, -0.8),
        (0, 16, -0.8),
        (0, 15, -0.8),
        (0, 14, -0.8),
        (0, 13, -0.8),
        (0, 12, -0.8),
        (0, 11, -0.8),
        (0, 10, -0.8),
        (0, 9, -0.8),
        (0, 8, -0.8),
        (0, 7, -0.8),
        (0, 6, -0.8),
        (0, 5, -0.8),
        (0, 4, -0.8),
        (0, 3, -0.8),
        (0, 2, -0.8),
        (0, 1, -0.8),
        (0, 0, -0.8),
        (1, 0, -0.8),
        (2, 0, -0.8),
        (3, 0, -0.8),
        (4, 0, -0.8),
        (5, 0, -0.8),
        (6, 0, -0.8),
        (7, 0, -0.8),
        (8, 0, -0.8),
        (9, 0, -0.8),
        (10, 0, -0.8),
        (11, 0, -0.8),
        (12, 0, -0.8),
        (13, 0, -0.8),
        (14, 0, -0.8),
        (15, 0, -0.8),
        (7.710949, 15, 0),
        (8.62208037, 15, 0),
        (9.53321175, 15, 0),
        (10.4443431, 15, 0),
        (11.3554745, 15, 0),
        (12.2666059, 15, 0),
        (13.1777372, 15, 0),
        (14.0888686, 15, 0),
        (15, 15, 0),
        (15, 14.1033989, 0),
        (15, 13.2067978, 0),
        (15, 12.3101967, 0),
        (15, 11.4135956, 0),
        (15, 10.5169944, 0),
        (15, 9.62039333, 0),
        (15, 8.72379222, 0),
        (15, 7.82719111, 0),
        (15, 6.93059, 0),
        (14.118813, 6.8863285, 0),
        (13.237626, 6.842067, 0),
        (12.356439, 6.7978055, 0),
        (11.475252, 6.753544, 0),
        (10.594065, 6.7092825, 0),
        (9.712878, 6.665021, 0),
        (8.831691, 6.6207595, 0),
        (7.950504, 6.576498, -3.59183616e-07),
        (7.92388678, 7.51244267, -3.12468992e-07),
        (7.89726956, 8.44838733, -2.65754369e-07),
        (7.87065233, 9.384332, -2.19039745e-07),
        (7.84403511, 10.3202767, -1.7232512e-07),
        (7.81741789, 11.2562213, -1.25610497e-07),
        (7.79080067, 12.192166, -7.88958729e-08),
        (7.76418344, 13.1281107, -3.21812486e-08),
        (7.73756622, 14.0640553, 0),
        (15, 4.928068, -1.77635684e-16),
        (15, 3.946051, -1.77635684e-16),
        (15, 2.964034, -1.77635684e-16),
        (15, 1.982017, -1.77635684e-16),
        (15, 1, -1.77635684e-16),
        (14.0155849, 1, 0),
        (13.0311697, 1, 0),
        (12.0467546, 1, 0),
        (11.0623394, 1, 0),
        (10.0779243, 1, 0),
        (9.09350914, 1, 0),
        (8.109094, 1, 0),
        (8.08366375, 1.89420825, 0),
        (8.0582335, 2.7884165, 0),
        (8.03280325, 3.68262475, 0),
        (8.007373, 4.576833, 0),
        (8.88145137, 4.62073738, 0),
        (9.75552975, 4.66464175, 0),
        (10.6296081, 4.70854612, 0),
        (11.5036865, 4.7524505, 0),
        (12.3777649, 4.79635487, 0),
        (13.2518433, 4.84025925, 0),
        (14.1259216, 4.88416362, 0),
        (6.108285, 1, 0),
        (5.25690417, 1, 0),
        (4.40552333, 1, 0),
        (3.5541425, 1, 0),
        (2.70276167, 1, 0),
        (1.85138083, 1, 0),
        (1, 1, 0),
        (1, 1.9771658, 0),
        (1, 2.9543316, 0),
        (1, 3.9314974, 0),
        (1, 4.9086632, 0),
        (1, 5.885829, 0),
        (1.831831, 5.75895933, 0),
        (2.663662, 5.63208967, 0),
        (3.495493, 5.50522, 0),
        (4.327324, 5.37835033, 0),
        (5.159155, 5.25148067, 0),
        (5.990986, 5.124611, -4.66933148e-07),
        (6.0144458, 4.2996888, -3.18408223e-07),
        (6.0379056, 3.4747666, -1.69883296e-07),
        (6.0613654, 2.6498444, -2.13583711e-08),
        (6.0848252, 1.8249222, 0),
        (1, 7.908957, -3.87853649e-07),
        (1, 8.79533738, 0),
        (1, 9.68171775, 0),
        (1, 10.5680981, 0),
        (1, 11.4544785, 0),
        (1, 12.3408589, 0),
        (1, 13.2272393, 0),
        (1, 14.1136196, 0),
        (1, 15, 0),
        (1.942028, 15, 0),
        (2.884056, 15, 0),
        (3.826084, 15, 0),
        (4.768112, 15, 0),
        (5.71014, 15, 0),
        (5.73802237, 14.0195691, 0),
        (5.76590475, 13.0391383, 0),
        (5.79378712, 12.0587074, 0),
        (5.8216695, 11.0782765, 0),
        (5.84955188, 10.0978456, 0),
        (5.87743425, 9.11741475, 0),
        (5.90531663, 8.13698387, 0),
        (5.933199, 7.156553, -1.64455316e-07),
        (4.9465592, 7.3070338, -2.09134982e-07),
        (3.9599194, 7.4575146, -2.53814649e-07),
        (2.9732796, 7.6079954, -2.98494315e-07),
        (1.9866398, 7.7584762, -3.43173982e-07),
        (7.196527, 15.5, -0.8),
        (8.11913511, 15.5, -0.8),
        (9.04174322, 15.5, -0.8),
        (9.96435133, 15.5, -0.8),
        (10.8869594, 15.5, -0.8),
        (11.8095676, 15.5, -0.8),
        (12.7321757, 15.5, -0.8),
        (13.6547838, 15.5, -0.8),
        (14.5773919, 15.5, -0.8),
        (15.5, 15.5, -0.8),
        (15.5, 14.5955074, -0.8),
        (15.5, 13.6910148, -0.8),
        (15.5, 12.7865222, -0.8),
        (15.5, 11.8820296, -0.8),
        (15.5, 10.977537, -0.8),
        (15.5, 10.0730444, -0.8),
        (15.5, 9.1685518, -0.8),
        (15.5, 8.2640592, -0.8),
        (15.5, 7.3595666, -0.8),
        (15.5, 6.455074, -0.8),
        (14.6072481, 6.41023167, -0.799999867),
        (13.7144962, 6.36538933, -0.799999837),
        (12.8217443, 6.320547, -0.799999807),
        (11.9289924, 6.27570467, -0.799999777),
        (11.0362406, 6.23086233, -0.799999748),
        (10.1434887, 6.18602, -0.799999718),
        (9.25073678, 6.14117767, -0.799999688),
        (8.35798489, 6.09633533, -0.799999658),
        (7.465233, 6.051493, -0.799999628),
        (7.4383624, 6.9963437, -0.799999546),
        (7.4114918, 7.9411944, -0.799999659),
        (7.3846212, 8.8860451, -0.799999772),
        (7.3577506, 9.8308958, -0.799999885),
        (7.33088, 10.7757465, -0.799999998),
        (7.3040094, 11.7205972, -0.8),
        (7.2771388, 12.6654479, -0.8),
        (7.2502682, 13.6102986, -0.8),
        (7.2233976, 14.5551493, -0.8),
        (15.5, 5.453813, -0.8),
        (15.5, 4.4630504, -0.8),
        (15.5, 3.4722878, -0.8),
        (15.5, 2.4815252, -0.8),
        (15.5, 1.4907626, -0.8),
        (15.5, 0.5, -0.8),
        (14.5153889, 0.5, -0.8),
        (13.5307778, 0.5, -0.8),
        (12.5461666, 0.5, -0.8),
        (11.5615555, 0.5, -0.8),
        (10.5769444, 0.5, -0.8),
        (9.59233325, 0.5, -0.8),
        (8.60772212, 0.5, -0.8),
        (7.623111, 0.5, -0.8),
        (7.5972222, 1.410332, -0.8),
        (7.5713334, 2.320664, -0.799999963),
        (7.5454446, 3.230996, -0.799999875),
        (7.5195558, 4.141328, -0.799999787),
        (7.493667, 5.05166, -0.799999699),
        (8.38325956, 5.09634367, -0.799999547),
        (9.27285211, 5.14102733, -0.799999556),
        (10.1624447, 5.185711, -0.799999566),
        (11.0520372, 5.23039467, -0.799999575),
        (11.9416298, 5.27507833, -0.799999585),
        (12.8312223, 5.319762, -0.799999595),
        (13.7208149, 5.36444567, -0.799999604),
        (14.6104074, 5.40912933, -0.799999614),
        (6.622707, 0.5, -0.8),
        (5.74803457, 0.5, -0.8),
        (4.87336214, 0.5, -0.8),
        (3.99868971, 0.5, -0.8),
        (3.12401729, 0.5, -0.8),
        (2.24934486, 0.5, -0.8),
        (1.37467243, 0.5, -0.8),
        (0.5, 0.5, -0.8),
        (0.5, 1.494645, -0.8),
        (0.5, 2.48929, -0.8),
        (0.5, 3.483935, -0.8),
        (0.5, 4.47858, -0.8),
        (0.5, 5.473225, -0.8),
        (0.5, 6.46787, -0.8),
        (1.35413143, 6.33759914, -0.799999397),
        (2.20826286, 6.20732829, -0.799999385),
        (3.06239429, 6.07705743, -0.799999373),
        (3.91652571, 5.94678657, -0.799999361),
        (4.77065714, 5.81651571, -0.799999348),
        (5.62478857, 5.68624486, -0.799999336),
        (6.47892, 5.555974, -0.799999418),
        (6.5028845, 4.71331167, -0.799999573),
        (6.526849, 3.87064933, -0.799999728),
        (6.5508135, 3.027987, -0.799999883),
        (6.574778, 2.18532467, -0.8),
        (6.5987425, 1.34266233, -0.8),
        (0.5, 7.479434, -0.8),
        (0.5, 8.370608, -0.8),
        (0.5, 9.261782, -0.8),
        (0.5, 10.152956, -0.8),
        (0.5, 11.04413, -0.8),
        (0.5, 11.935304, -0.8),
        (0.5, 12.826478, -0.8),
        (0.5, 13.717652, -0.8),
        (0.5, 14.608826, -0.8),
        (0.5, 15.5, -0.8),
        (1.44935383, 15.5, -0.8),
        (2.39870767, 15.5, -0.8),
        (3.3480615, 15.5, -0.8),
        (4.29741533, 15.5, -0.8),
        (5.24676917, 15.5, -0.8),
        (6.196123, 15.5, -0.8),
        (6.22433456, 14.5079939, -0.799999888),
        (6.25254611, 13.5159878, -0.799999852),
        (6.28075767, 12.5239817, -0.799999816),
        (6.30896922, 11.5319756, -0.79999978),
        (6.33718078, 10.5399694, -0.799999744),
        (6.36539233, 9.54796333, -0.799999707),
        (6.39360389, 8.55595722, -0.799999671),
        (6.42181544, 7.56395111, -0.799999635),
        (6.450027, 6.571945, -0.8),
        (5.60002314, 6.70158629, -0.8),
        (4.75001929, 6.83122757, -0.8),
        (3.90001543, 6.96086886, -0.8),
        (3.05001157, 7.09051014, -0.8),
        (2.20000771, 7.22015143, -0.8),
        (1.35000386, 7.34979271, -0.8),
        (4.95307256, 10.722647, 0),
        (4.17934373, 11.5377503, 0),
        (5.67303979, 10.5941411, 0),
        (5.46023642, 9.64147499, 0),
        (4.55164847, 9.74287681, 0),
        (4.24234556, 10.3742127, 0),
        (4.96244175, 11.4086876, 0),
        (3.2293396, 9.70667759, 0),
        (3.33688474, 10.3648863, 0),
        (3.84953845, 9.33472378, 0),
        (3.41833996, 11.117785, 0),
        (2.35629475, 10.2408903, 0),
        (2.56740741, 8.7211695, 0),
        (2.48051094, 9.39487889, 0),
        (3.53680645, 8.59895709, 0),
        (4.51422813, 8.75605636, 0),
        (6.55410809, 10.1584983, -0.8),
        (5.14656476, 8.86456483, 0),
        (5.65474805, 8.43482352, 0),
        (2.79408604, 11.1680993, 0),
        (2.10538581, 10.9181409, 0),
        (1.61687906, 10.3435181, 0),
        (1.66041058, 9.53576541, 0),
        (4.10996088, 8.24109583, 0),
        (4.61693458, 7.77870054, 0),
        (4.68115329, 12.4246993, 0),
        (3.37968473, 11.7414478, 0),
        (3.74160498, 12.6659597, 0),
        (6.59217973, 11.8823872, -0.8),
        (6.93700387, 10.8857144, -0.8),
        (5.42499997, 11.9272202, 0),
        (6.61219617, 8.10665106, -0.8),
        (7.0538321, 9.21507274, -0.8),
        (7.17961352, 8.42613357, -0.8),
        (1.42950046, 8.83678724, 0),
        (6.68360726, 13.1606691, -0.8),
        (6.96225187, 12.581471, -0.8),
        (5.40129955, 13.3177851, 0),
        (6.93787254, 7.1418684, -0.8),
        (1.42364512, 8.20181249, 0),
        (0.18737556, 9.28642819, -0.8),
        (1.60458758, 11.4504602, 0),
        (2.42169763, 11.8900452, 0),
        (1.98301547, 12.5022916, 0),
        (3.4398798, 6.5134632, -0.8),
        (2.98844925, 8.19220497, 0),
        (4.16091005, 6.72482142, -0.8),
        (6.50069303, 6.08536053, -0.8),
        (5.37708954, 7.6335006, 0),
        (5.84096839, 6.40142715, -0.8),
        (7.06058083, 6.5277526, -0.8),
        (4.8029119, 6.2858849, -0.8),
        (7.15879944, 5.58980282, -0.8),
        (5.04140976, 14.0175253, 0),
        (6.94948407, 14.2119811, -0.8),
        (6.43384036, 14.7096279, -0.8),
        (5.37457097, 12.6290202, 0),
        (4.46521898, 13.3949656, 0),
        (8.40519009, 8.57217421, 0),
        (8.89357941, 9.12306901, 0),
        (8.49309906, 7.85268809, 0),
        (8.26482168, 9.19840781, 0),
        (5.80654643, 15.7544295, -0.8),
        (6.70467641, 15.5249119, -0.8),
        (5.03988925, 4.71028321, 0),
        (8.53080071, 10.3266302, 0),
        (5.65625732, 3.73941025, 0),
        (4.79872471, 3.81822024, 0),
        (3.8488606, 4.39798776, 0),
        (9.09959041, 9.95644762, 0),
        (2.95172204, 12.8596631, 0),
        (2.34917347, 7.94850172, 0),
        (9.12775285, 8.37625652, 0),
        (9.52663356, 7.59453598, 0),
        (8.72068377, 6.91928171, 0),
        (2.04786853, 13.2438903, 0),
        (1.43598105, 12.9962721, 0),
        (8.79585823, 11.4334609, 0),
        (8.15039994, 12.0274439, 0),
        (8.32619824, 10.9275608, 0),
        (8.28011652, 14.5783985, 0),
        (3.92451049, 14.0570465, 0),
        (9.93168992, 9.14918534, 0),
        (9.80023526, 9.94811991, 0),
        (2.82900126, 13.7556458, 0),
        (3.51225885, 13.5498431, 0),
        (4.01196346, 5.11858445, 0),
        (8.43009782, 13.1703103, 0),
        (8.10937989, 13.9752335, 0),
        (7.19833778, 4.66815074, -0.8),
        (8.45786672, 3.64708363, 0),
        (8.70005712, 5.49905099, -0.8),
        (6.83017636, 4.02767345, -0.8),
        (8.78774519, 4.22982977, 0),
        (1.46517178, 7.10498831, -0.8),
        (2.61884969, 6.44390539, -0.8),
        (8.84618228, 13.8168865, 0),
        (9.51092313, 5.60049769, -0.8),
        (7.91491819, 5.29918632, -0.8),
        (2.11431608, 14.3645109, 0),
        (1.32095543, 13.943501, 0),
        (9.62674665, 4.05839363, 0),
        (9.17351338, 3.43949943, 0),
        (8.72460119, 2.91856724, 0),
        (0.167983278, 13.1853171, -0.8),
        (9.97562071, 3.28594117, 0),
        (9.37634508, 2.72818616, 0),
        (1.78045392, 5.55378428, 0),
        (3.13246255, 4.32630701, 0),
        (10.2540587, 8.54241081, 0),
        (10.43749, 6.91102866, 0),
        (9.63739572, 11.0626525, 0),
        (2.44370669, 5.41177388, 0),
        (2.03946378, 4.65360794, 0),
        (1.58949576, 3.8318359, 0),
        (2.39384333, 3.84398509, 0),
        (3.02892124, 5.07210511, 0),
        (10.8295659, 7.40073794, 0),
        (10.3340279, 5.57245602, -0.8),
        (10.2024219, 7.72346796, 0),
        (0.184244827, 15.0026161, -0.8),
        (0.210158269, 4.10740262, -0.8),
        (9.71117734, 2.18037706, 0),
        (8.27565501, 1.77109919, 0),
        (8.98665643, 2.10290991, 0),
        (11.5309342, 7.35219232, 0),
        (7.42331243, 2.059903, -0.8),
        (6.79469699, 2.5878325, -0.8),
        (7.18135787, 3.23170957, -0.8),
        (11.1532637, 8.14789377, 0),
        (11.9243665, 7.89348234, 0),
        (10.7070483, 9.15676375, 0),
        (10.5605678, 10.0437407, 0),
        (8.57264245, 12.5518508, 0),
        (9.43464808, 13.2520674, 0),
        (12.4781445, 7.20762005, 0),
        (11.4631265, 8.74983278, 0),
        (12.6196014, 8.76040556, 0),
        (12.6285384, 7.90761717, 0),
        (0.200926432, 6.14544957, -0.8),
        (0.201460858, 5.03618366, -0.8),
        (7.28771474, 1.26621199, -0.8),
        (9.87302024, 11.8399321, 0),
        (10.4414369, 11.4680685, 0),
        (9.87859859, 12.8110001, 0),
        (10.9440479, 12.3602551, 0),
        (9.28746376, 12.2192963, 0),
        (0.253243381, 15.8019853, -0.8),
        (9.38948167, 14.1411027, 0),
        (9.3875833, 6.97221794, 0),
        (3.7800586, 14.7300316, 0),
        (3.29628221, 14.2677702, 0),
        (5.62584571, 1.93894158, 0),
        (10.5739969, 14.0414144, 0),
        (9.9470125, 13.64389, 0),
        (4.56505234, 14.532773, 0),
        (3.03935431, 3.70699216, 0),
        (3.89196487, 3.22638043, 0),
        (11.1673378, 13.6836607, 0),
        (10.538025, 13.1404057, 0),
        (11.0149867, 3.28408258, 0),
        (10.5187665, 3.87552671, 0),
        (10.3041535, 2.40231322, 0),
        (3.15919858, 15.6859394, -0.8),
        (0.947092059, 15.68415, -0.8),
        (11.4103796, 11.0561672, 0),
        (11.5306344, 11.6652641, 0),
        (13.1941719, 8.21628132, 0),
        (13.5906787, 7.71882271, 0),
        (10.9725193, 14.7372759, 0),
        (10.2919675, 15.762985, -0.8),
        (12.127804, 13.3888938, 0),
        (11.9432636, 14.4858016, 0),
        (11.4954571, 12.6933237, 0),
        (9.45456196, 1.60381016, 0),
        (10.6998339, 1.87074606, 0),
        (10.2109602, 1.33892156, 0),
        (12.5695585, 12.3555342, 0),
        (13.0651784, 13.4187868, 0),
        (13.0919118, 12.791288, 0),
        (12.5905295, 14.4456066, 0),
        (0.300329822, 3.34908827, -0.8),
        (11.1328202, 2.35950987, 0),
        (7.37704985, 0.257144586, -0.8),
        (5.48392079, 1.31137289, 0),
        (4.90603512, 1.53714707, 0),
        (5.20783694, 2.93746943, 0),
        (4.82420095, 2.19040523, 0),
        (11.9220429, 1.96193091, 0),
        (11.5951702, 1.15852671, 0),
        (3.86652344, 15.7365954, -0.8),
        (9.00418112, 10.8274302, 0),
        (11.8932782, 5.89562657, -0.8),
        (12.5271059, 5.81128013, -0.8),
        (4.09092883, 1.78999435, 0),
        (4.28689771, 1.17210738, 0),
        (3.71724391, 2.45243209, 0),
        (4.28431528, 2.7086654, 0),
        (1.85189027, 2.75932442, 0),
        (13.6339584, 14.4416142, 0),
        (3.00442472, 2.80510265, 0),
        (1.15651683, 2.89368508, 0),
        (12.3507777, 10.72299, 0),
        (12.3097345, 11.6046968, 0),
        (12.0357029, 10.0635024, 0),
        (11.3521939, 10.0599033, 0),
        (11.037814, 5.61245397, -0.8),
        (12.0681957, 9.20302996, 0),
        (13.3872294, 8.97660504, 0),
        (10.4478549, 10.8373449, 0),
        (13.1914069, 5.74855902, -0.8),
        (14.0028908, 13.1981577, 0),
        (14.1068382, 13.9925786, 0),
        (14.7599748, 13.4425541, 0),
        (10.3114913, 0.211505383, -0.8),
        (12.5787836, 1.64748395, 0),
        (11.7275053, 2.78532678, 0),
        (11.4717521, 3.84882727, 0),
        (12.1895815, 3.65358196, 0),
        (12.9407496, 15.7629147, -0.8),
        (12.527658, 4.48799376, 0),
        (14.6670121, 12.4482261, 0),
        (15.6527386, 14.2578717, -0.8),
        (13.9113444, 12.5512007, 0),
        (13.0287337, 11.6242662, 0),
        (13.4307473, 11.0810119, 0),
        (13.1050182, 2.00104695, 0),
        (12.7035765, 2.91024372, 0),
        (13.2945593, 3.25924145, 0),
        (1.19012767, 1.88936906, 0),
        (15.3123286, 15.8386038, -0.8),
        (14.0093422, 11.6100814, 0),
        (13.3109816, 4.2107855, 0),
        (14.3244114, 3.22721364, 0),
        (13.7535546, 2.1409627, 0),
        (13.7888984, 3.74935837, 0),
        (14.1775627, 10.4033125, 0),
        (14.4829572, 10.9833696, 0),
        (13.4474101, 12.1116649, 0),
        (0.338621382, 0.919409583, -0.8),
        (1.78009966, 1.53154671, 0),
        (14.6638627, 9.93623476, 0),
        (3.20665862, 1.3853833, 0),
        (14.6140608, 2.32497567, 0),
        (14.2855948, 4.14768529, 0),
        (2.53923529, 1.67768096, 0),
        (13.0539898, 10.0486084, 0),
        (14.1830908, 5.75391639, -0.8),
        (2.05766238, 0.196974169, -0.8),
        (2.90110898, 0.162919387, -0.8),
        (14.1760321, 1.38229637, 0),
        (13.1261739, 0.162051048, -0.8),
        (15.6521632, 11.7102019, -0.8),
        (14.7162951, 6.15765976, -0.8),
        (14.8326297, 3.68546104, 0),
        (14.6326542, 8.72026018, 0),
        (15.715478, 8.08968327, -0.8),
        (14.3343687, 9.29474364, 0),
        (15.6576759, 5.59515639, -0.8),
        (14.2539846, 7.60213886, 0),
        (13.767921, 8.46148621, 0),
        (11.9609497, 12.141106, 0),
        (13.6633241, 9.60868055, 0),
        (13.8123732, 2.84295041, 0),
        (2.27764221, 2.24790067, 0),
        (15.8136355, 4.2361452, -0.8),
        (3.15482721, 2.02568313, 0),
        (15.7814804, 7.31970332, -0.8),
        (12.8604665, 9.42459758, 0)
    ]
    color3f[] primvars:displayColor = [
        (0.34, 0.2, 0.08),
        (0.34, 0.2, 0.08),
        (0.34, 0.2, 0.08),
        (0.34, 0.2, 0.08),
        (0.34, 0.2, 0.08),
        (0.34, 0.2, 0.08),
        (0.34, 0.2, 0.08),
        (0.34, 0.2, 0.08),
        (0.34, 0.2, 0.08),
        (0.34, 0.2, 0.08),
        (0.34, 0.2, 0.08),
        (0.34, 0.2, 0.08),
        (0.34, 0.2, 0.08),
        (0.34, 0.2, 0.08),
        (0.34, 0.2, 0.08),
        (0.34, 0.2, 0.08),
        (0.34, 0.2, 0.08),
        (0.34, 0.2, 0.08),
        (0.34, 0.2, 0.08),
        (0.34, 0.2, 0.08),
        (0.34, 0.2, 0.08),
        (0.34, 0.2, 0.08),
        (0.34, 0.2, 0.08),
        (0.34, 0.2, 0.08),
        (0.34, 0.2, 0.08),
        (0.34, 0.2, 0.08),
        (0.34, 0.2, 0.08),
        (0.34, 0.2, 0.08),
        (0.34, 0.2, 0.08),
        (0.34, 0.2, 0.08),
        (0.34, 0.2, 0.08),
        (0.34, 0.2, 0.08),
        (0.34, 0.2, 0.08),
        (0.34, 0.2, 0.08),
        (0.34, 0.2, 0.08),
        (0.34, 0.2, 0.08),
        (0.34, 0.2, 0.08),
        (0.34, 0.2, 0.08),
        (0.34, 0.2, 0.08),
        (0.34, 0.2, 0.08),
        (0.34, 0.2, 0.08),
        (0.34, 0.2, 0.08),
        (0.34, 0.2, 0.08),
        (0.34, 0.2, 0.08),
        (0.34, 0.2, 0.08),
        (0.34, 0.2, 0.08),
        (0.34, 0.2, 0.08),
        (0.34, 0.2, 0.08),
        (0.34, 0.2, 0.08),
        (0.34, 0.2, 0.08),
        (0.34, 0.2, 0.08),
        (0.34, 0.2, 0.08),
        (0.34, 0.2, 0.08),
        (0.34, 0.2, 0.08),
        (0.34, 0.2, 0.08),
        (0.34, 0.2, 0.08),
        (0.34, 0.2, 0.08),
        (0.34, 0.2, 0.08),
        (0.34, 0.2, 0.08),
        (0.34, 0.2, 0.08),
        (0.34, 0.2, 0.08),
        (0.34, 0.2, 0.08),
        (0.34, 0.2, 0.08),
        (0.34, 0.2, 0.08),
        (0.18, 0.38, 0.08),
        (0.18, 0.38, 0.08),
        (0.18, 0.38, 0.08),
        (0.18, 0.38, 0.08),
        (0.18, 0.38, 0.08),
        (0.18, 0.38, 0.08),
        (0.18, 0.38, 0.08),
        (0.18, 0.38, 0.08),
        (0.18, 0.38, 0.08),
        (0.18, 0.38, 0.08),
        (0.18, 0.38, 0.08),
        (0.18, 0.38, 0.08),
        (0.18, 0.38, 0.08),
        (0.18, 0.38, 0.08),
        (0.18, 0.38, 0.08),
        (0.18, 0.38, 0.08),
        (0.18, 0.38, 0.08),
        (0.18, 0.38, 0.08),
        (0.18, 0.38, 0.08),
        (0.18, 0.38, 0.08),
        (0.18, 0.38, 0.08),
        (0.18, 0.38, 0.08),
        (0.18, 0.38, 0.08),
        (0.18, 0.38, 0.08),
        (0.18, 0.38, 0.08),
        (0.34, 0.2, 0.08),
        (0.34, 0.2, 0.08),
        (0.34, 0.2, 0.08),
        (0.34, 0.2, 0.08),
        (0.34, 0.2, 0.08),
        (0.34, 0.2, 0.08),
        (0.34, 0.2, 0.08),
        (0.34, 0.2, 0.08),
        (0.18, 0.38, 0.08),
        (0.18, 0.38, 0.08),
        (0.18, 0.38, 0.08),
        (0.18, 0.38, 0.08),
        (0.18, 0.38, 0.08),
        (0.18, 0.38, 0.08),
        (0.18, 0.38, 0.08),
        (0.18, 0.38, 0.08),
        (0.18, 0.38, 0.08),
        (0.18, 0.38, 0.08),
        (0.18, 0.38, 0.08),
        (0.18, 0.38, 0.08),
        (0.18, 0.38, 0.08),
        (0.18, 0.38, 0.08),
        (0.18, 0.38, 0.08),
        (0.18, 0.38, 0.08),
        (0.18, 0.38, 0.08),
        (0.18, 0.38, 0.08),
        (0.18, 0.38, 0.08),
        (0.18, 0.38, 0.08),
        (0.18, 0.38, 0.08),
        (0.18, 0.38, 0.08),
        (0.18, 0.38, 0.08),
        (0.18, 0.38, 0.08),
        (0.18, 0.38, 0.08),
        (0.18, 0.38, 0.08),
        (0.18, 0.38, 0.08),
        (0.18, 0.38, 0.08),
        (0.18, 0.38, 0.08),
        (0.18, 0.38, 0.08),
        (0.18, 0.38, 0.08),
        (0.18, 0.38, 0.08),
        (0.18, 0.38, 0.08),
        (0.18, 0.38, 0.08),
        (0.18, 0.38, 0.08),
        (0.18, 0.38, 0.08),
        (0.18, 0.38, 0.08),
        (0.18, 0.38, 0.08),
        (0.18, 0.38, 0.08),
        (0.18, 0.38, 0.08),
        (0.18, 0.38, 0.08),
        (0.34, 0.2, 0.08),
        (0.34, 0.2, 0.08),
        (0.34, 0.2, 0.08),
        (0.34, 0.2, 0.08),
        (0.18, 0.38, 0.08),
        (0.34, 0.2, 0.08),
        (0.18, 0.38, 0.08),
        (0.18, 0.38, 0.08),
        (0.18, 0.38, 0.08),
        (0.18, 0.38, 0.08),
        (0.18, 0.38, 0.08),
        (0.18, 0.38, 0.08),
        (0.18, 0.38, 0.08),
        (0.18, 0.38, 0.08),
        (0.18, 0.38, 0.08),
        (0.18, 0.38, 0.08),
        (0.18, 0.38, 0.08),
        (0.18, 0.38, 0.08),
        (0.18, 0.38, 0.08),
        (0.18, 0.38, 0.08),
        (0.18, 0.38, 0.08),
        (0.18, 0.38, 0.08),
        (0.18, 0.38, 0.08),
        (0.18, 0.38, 0.08),
        (0.18, 0.38, 0.08),
        (0.18, 0.38, 0.08),
        (0.34, 0.2, 0.08),
        (0.34, 0.2, 0.08),
        (0.34, 0.2, 0.08),
        (0.34, 0.2, 0.08),
        (0.34, 0.2, 0.08),
        (0.34, 0.2, 0.08),
        (0.34, 0.2, 0.08),
        (0.34, 0.2, 0.08),
        (0.34, 0.2, 0.08),
        (0.34, 0.2, 0.08),
        (0.34, 0.2, 0.08),
        (0.34, 0.2, 0.08),
        (0.34, 0.2, 0.08),
        (0.34, 0.2, 0.08),
        (0.34, 0.2, 0.08),
        (0.34, 0.2, 0.08),
        (0.34, 0.2, 0.08),
        (0.34, 0.2, 0.08),
        (0.34, 0.2, 0.08),
        (0.34, 0.2, 0.08),
        (0.34, 0.2, 0.08),
        (0.34, 0.2, 0.08),
        (0.34, 0.2, 0.08),
        (0.34, 0.2, 0.08),
        (0.34, 0.2, 0.08),
        (0.34, 0.2, 0.08),
        (0.34, 0.2, 0.08),
        (0.34, 0.2, 0.08),
        (0.34, 0.2, 0.08),
        (0.34, 0.2, 0.08),
        (0.34, 0.2, 0.08),
        (0.34, 0.2, 0.08),
        (0.34, 0.2, 0.08),
        (0.34, 0.2, 0.08),
        (0.34, 0.2, 0.08),
        (0.34, 0.2, 0.08),
        (0.34, 0.2, 0.08),
        (0.34, 0.2, 0.08),
        (0.34, 0.2, 0.08),
        (0.34, 0.2, 0.08),
        (0.34, 0.2, 0.08),
        (0.34, 0.2, 0.08),
        (0.34, 0.2, 0.08),
        (0.34, 0.2, 0.08),
        (0.34, 0.2, 0.08),
        (0.34, 0.2, 0.08),
        (0.34, 0.2, 0.08),
        (0.34, 0.2, 0.08),
        (0.34, 0.2, 0.08),
        (0.34, 0.2, 0.08),
        (0.34, 0.2, 0.08),
        (0.34, 0.2, 0.08),
        (0.34, 0.2, 0.08),
        (0.34, 0.2, 0.08),
        (0.34, 0.2, 0.08),
        (0.34, 0.2, 0.08),
        (0.34, 0.2, 0.08),
        (0.34, 0.2, 0.08),
        (0.34, 0.2, 0.08),
        (0.34, 0.2, 0.08),
        (0.34, 0.2, 0.08),
        (0.34, 0.2, 0.08),
        (0.34, 0.2, 0.08),
        (0.34, 0.2, 0.08),
        (0.34, 0.2, 0.08),
        (0.34, 0.2, 0.08),
        (0.34, 0.2, 0.08),
        (0.34, 0.2, 0.08),
        (0.34, 0.2, 0.08),
        (0.34, 0.2, 0.08),
        (0.34, 0.2, 0.08),
        (0.34, 0.2, 0.08),
        (0.34, 0.2, 0.08),
        (0.34, 0.2, 0.08),
        (0.34, 0.2, 0.08),
        (0.34, 0.2, 0.08),
        (0.34, 0.2, 0.08),
        (0.34, 0.2, 0.08),
        (0.34, 0.2, 0.08),
        (0.34, 0.2, 0.08),
        (0.34, 0.2, 0.08),
        (0.34, 0.2, 0.08),
        (0.34, 0.2, 0.08),
        (0.34, 0.2, 0.08),
        (0.34, 0.2, 0.08),
        (0.34, 0.2, 0.08),
        (0.34, 0.2, 0.08),
        (0.34, 0.2, 0.08),
        (0.34, 0.2, 0.08),
        (0.34, 0.2, 0.08),
        (0.34, 0.2, 0.08),
        (0.34, 0.2, 0.08),
        (0.34, 0.2, 0.08),
        (0.34, 0.2, 0.08),
        (0.34, 0.2, 0.08),
        (0.34, 0.2, 0.08),
        (0.34, 0.2, 0.08),
        (0.34, 0.2, 0.08),
        (0.34, 0.2, 0.08),
        (0.34, 0.2, 0.08),
        (0.34, 0.2, 0.08),
        (0.34, 0.2, 0.08),
        (0.34, 0.2, 0.08),
        (0.34, 0.2, 0.08),
        (0.34, 0.2, 0.08),
        (0.34, 0.2, 0.08),
        (0.34, 0.2, 0.08),
        (0.34, 0.2, 0.08),
        (0.34, 0.2, 0.08),
        (0.34, 0.2, 0.08),
        (0.34, 0.2, 0.08),
        (0.34, 0.2, 0.08),
        (0.34, 0.2, 0.08),
        (0.34, 0.2, 0.08),
        (0.34, 0.2, 0.08),
        (0.34, 0.2, 0.08),
        (0.34, 0.2, 0.08),
        (0.34, 0.2, 0.08),
        (0.34, 0.2, 0.08),
        (0.34, 0.2, 0.08),
        (0.34, 0.2, 0.08),
        (0.34, 0.2, 0.08),
        (0.34, 0.2, 0.08),
        (0.34, 0.2, 0.08),
        (0.34, 0.2, 0.08),
        (0.34, 0.2, 0.08),
        (0.34, 0.2, 0.08),
        (0.18, 0.38, 0.08),
        (0.18, 0.38, 0.08),
        (0.18, 0.38, 0.08),
        (0.18, 0.38, 0.08),
        (0.18, 0.38, 0.08),
        (0.18, 0.38, 0.08),
        (0.18, 0.38, 0.08),
        (0.18, 0.38, 0.08),
        (0.18, 0.38, 0.08),
        (0.18, 0.38, 0.08),
        (0.18, 0.38, 0.08),
        (0.18, 0.38, 0.08),
        (0.18, 0.38, 0.08),
        (0.18, 0.38, 0.08),
        (0.18, 0.38, 0.08),
        (0.18, 0.38, 0.08),
        (0.34, 0.2, 0.08),
        (0.18, 0.38, 0.08),
        (0.18, 0.38, 0.08),
        (0.18, 0.38, 0.08),
        (0.18, 0.38, 0.08),
        (0.18, 0.38, 0.08),
        (0.18, 0.38, 0.08),
        (0.18, 0.38, 0.08),
        (0.18, 0.38, 0.08),
        (0.18, 0.38, 0.08),
        (0.18, 0.38, 0.08),
        (0.18, 0.38, 0.08),
        (0.34, 0.2, 0.08),
        (0.34, 0.2, 0.08),
        (0.18, 0.38, 0.08),
        (0.34, 0.2, 0.08),
        (0.34, 0.2, 0.08),
        (0.34, 0.2, 0.08),
        (0.18, 0.38, 0.08),
        (0.34, 0.2, 0.08),
        (0.34, 0.2, 0.08),
        (0.18, 0.38, 0.08),
        (0.34, 0.2, 0.08),
        (0.18, 0.38, 0.08),
        (0.34, 0.2, 0.08),
        (0.18, 0.38, 0.08),
        (0.18, 0.38, 0.08),
        (0.18, 0.38, 0.08),
        (0.34, 0.2, 0.08),
        (0.18, 0.38, 0.08),
        (0.34, 0.2, 0.08),
        (0.34, 0.2, 0.08),
        (0.18, 0.38, 0.08),
        (0.34, 0.2, 0.08),
        (0.34, 0.2, 0.08),
        (0.34, 0.2, 0.08),
        (0.34, 0.2, 0.08),
        (0.18, 0.38, 0.08),
        (0.34, 0.2, 0.08),
        (0.34, 0.2, 0.08),
        (0.18, 0.38, 0.08),
        (0.18, 0.38, 0.08),
        (0.18, 0.38, 0.08),
        (0.18, 0.38, 0.08),
        (0.18, 0.38, 0.08),
        (0.18, 0.38, 0.08),
        (0.34, 0.2, 0.08),
        (0.34, 0.2, 0.08),
        (0.18, 0.38, 0.08),
        (0.18, 0.38, 0.08),
        (0.18, 0.38, 0.08),
        (0.18, 0.38, 0.08),
        (0.18, 0.38, 0.08),
        (0.18, 0.38, 0.08),
        (0.18, 0.38, 0.08),
        (0.18, 0.38, 0.08),
        (0.18, 0.38, 0.08),
        (0.18, 0.38, 0.08),
        (0.18, 0.38, 0.08),
        (0.18, 0.38, 0.08),
        (0.18, 0.38, 0.08),
        (0.18, 0.38, 0.08),
        (0.18, 0.38, 0.08),
        (0.18, 0.38, 0.08),
        (0.18, 0.38, 0.08),
        (0.18, 0.38, 0.08),
        (0.18, 0.38, 0.08),
        (0.18, 0.38, 0.08),
        (0.18, 0.38, 0.08),
        (0.18, 0.38, 0.08),
        (0.18, 0.38, 0.08),
        (0.18, 0.38, 0.08),
        (0.18, 0.38, 0.08),
        (0.34, 0.2, 0.08),
        (0.18, 0.38, 0.08),
        (0.34, 0.2, 0.08),
        (0.34, 0.2, 0.08),
        (0.18, 0.38, 0.08),
        (0.34, 0.2, 0.08),
        (0.34, 0.2, 0.08),
        (0.18, 0.38, 0.08),
        (0.34, 0.2, 0.08),
        (0.34, 0.2, 0.08),
        (0.18, 0.38, 0.08),
        (0.18, 0.38, 0.08),
        (0.18, 0.38, 0.08),
        (0.18, 0.38, 0.08),
        (0.18, 0.38, 0.08),
        (0.34, 0.2, 0.08),
        (0.18, 0.38, 0.08),
        (0.18, 0.38, 0.08),
        (0.18, 0.38, 0.08),
        (0.18, 0.38, 0.08),
        (0.18, 0.38, 0.08),
        (0.18, 0.38, 0.08),
        (0.18, 0.38, 0.08),
        (0.18, 0.38, 0.08),
        (0.18, 0.38, 0.08),
        (0.18, 0.38, 0.08),
        (0.18, 0.38, 0.08),
        (0.18, 0.38, 0.08),
        (0.18, 0.38, 0.08),
        (0.34, 0.2, 0.08),
        (0.18, 0.38, 0.08),
        (0.34, 0.2, 0.08),
        (0.34, 0.2, 0.08),
        (0.18, 0.38, 0.08),
        (0.18, 0.38, 0.08),
        (0.18, 0.38, 0.08),
        (0.18, 0.38, 0.08),
        (0.34, 0.2, 0.08),
        (0.34, 0.2, 0.08),
        (0.34, 0.2, 0.08),
        (0.18, 0.38, 0.08),
        (0.18, 0.38, 0.08),
        (0.18, 0.38, 0.08),
        (0.18, 0.38, 0.08),
        (0.18, 0.38, 0.08),
        (0.18, 0.38, 0.08),
        (0.18, 0.38, 0.08),
        (0.18, 0.38, 0.08),
        (0.18, 0.38, 0.08),
        (0.18, 0.38, 0.08),
        (0.34, 0.2, 0.08),
        (0.34, 0.2, 0.08),
        (0.34, 0.2, 0.08),
        (0.18, 0.38, 0.08),
        (0.18, 0.38, 0.08),
        (0.18, 0.38, 0.08),
        (0.18, 0.38, 0.08),
        (0.18, 0.38, 0.08),
        (0.34, 0.2, 0.08),
        (0.18, 0.38, 0.08),
        (0.18, 0.38, 0.08),
        (0.18, 0.38, 0.08),
        (0.18, 0.38, 0.08),
        (0.18, 0.38, 0.08),
        (0.18, 0.38, 0.08),
        (0.18, 0.38, 0.08),
        (0.18, 0.38, 0.08),
        (0.18, 0.38, 0.08),
        (0.18, 0.38, 0.08),
        (0.18, 0.38, 0.08),
        (0.18, 0.38, 0.08),
        (0.18, 0.38, 0.08),
        (0.18, 0.38, 0.08),
        (0.18, 0.38, 0.08),
        (0.34, 0.2, 0.08),
        (0.34, 0.2, 0.08),
        (0.18, 0.38, 0.08),
        (0.18, 0.38, 0.08),
        (0.18, 0.38, 0.08),
        (0.18, 0.38, 0.08),
        (0.18, 0.38, 0.08),
        (0.34, 0.2, 0.08),
        (0.18, 0.38, 0.08),
        (0.18, 0.38, 0.08),
        (0.18, 0.38, 0.08),
        (0.18, 0.38, 0.08),
        (0.18, 0.38, 0.08),
        (0.18, 0.38, 0.08),
        (0.18, 0.38, 0.08),
        (0.18, 0.38, 0.08),
        (0.18, 0.38, 0.08),
        (0.18, 0.38, 0.08),
        (0.34, 0.2, 0.08),
        (0.18, 0.38, 0.08),
        (0.34, 0.2, 0.08),
        (0.18, 0.38, 0.08),
        (0.18, 0.38, 0.08),
        (0.18, 0.38, 0.08),
        (0.18, 0.38, 0.08),
        (0.18, 0.38, 0.08),
        (0.18, 0.38, 0.08),
        (0.34, 0.2, 0.08),
        (0.18, 0.38, 0.08),
        (0.34, 0.2, 0.08),
        (0.34, 0.2, 0.08),
        (0.18, 0.38, 0.08),
        (0.18, 0.38, 0.08),
        (0.18, 0.38, 0.08),
        (0.18, 0.38, 0.08),
        (0.18, 0.38, 0.08),
        (0.18, 0.38, 0.08),
        (0.18, 0.38, 0.08),
        (0.18, 0.38, 0.08),
        (0.18, 0.38, 0.08),
        (0.18, 0.38, 0.08),
        (0.18, 0.38, 0.08),
        (0.18, 0.38, 0.08),
        (0.34, 0.2, 0.08),
        (0.18, 0.38, 0.08),
        (0.18, 0.38, 0.08),
        (0.18, 0.38, 0.08),
        (0.34, 0.2, 0.08),
        (0.18, 0.38, 0.08),
        (0.18, 0.38, 0.08),
        (0.18, 0.38, 0.08),
        (0.34, 0.2, 0.08),
        (0.18, 0.38, 0.08),
        (0.18, 0.38, 0.08),
        (0.18, 0.38, 0.08),
        (0.18, 0.38, 0.08),
        (0.34, 0.2, 0.08),
        (0.18, 0.38, 0.08),
        (0.18, 0.38, 0.08),
        (0.34, 0.2, 0.08),
        (0.18, 0.38, 0.08),
        (0.18, 0.38, 0.08),
        (0.18, 0.38, 0.08),
        (0.18, 0.38, 0.08),
        (0.18, 0.38, 0.08),
        (0.18, 0.38, 0.08),
        (0.18, 0.38, 0.08),
        (0.34, 0.2, 0.08),
        (0.18, 0.38, 0.08),
        (0.18, 0.38, 0.08),
        (0.18, 0.38, 0.08),
        (0.18, 0.38, 0.08),
        (0.18, 0.38, 0.08),
        (0.18, 0.38, 0.08),
        (0.18, 0.38, 0.08),
        (0.18, 0.38, 0.08),
        (0.34, 0.2, 0.08),
        (0.18, 0.38, 0.08),
        (0.18, 0.38, 0.08),
        (0.18, 0.38, 0.08),
        (0.18, 0.38, 0.08),
        (0.18, 0.38, 0.08),
        (0.18, 0.38, 0.08),
        (0.18, 0.38, 0.08),
        (0.34, 0.2, 0.08),
        (0.34, 0.2, 0.08),
        (0.34, 0.2, 0.08),
        (0.18, 0.38, 0.08),
        (0.34, 0.2, 0.08),
        (0.34, 0.2, 0.08),
        (0.34, 0.2, 0.08),
        (0.18, 0.38, 0.08),
        (0.18, 0.38, 0.08),
        (0.34, 0.2, 0.08),
        (0.18, 0.38, 0.08),
        (0.34, 0.2, 0.08),
        (0.18, 0.38, 0.08),
        (0.18, 0.38, 0.08),
        (0.18, 0.38, 0.08),
        (0.18, 0.38, 0.08),
        (0.18, 0.38, 0.08),
        (0.18, 0.38, 0.08),
        (0.34, 0.2, 0.08),
        (0.18, 0.38, 0.08),
        (0.34, 0.2, 0.08),
        (0.18, 0.38, 0.08)
    ] (
        interpolation = "vertex"
    )
    uniform token subdivisionScheme = "none"
}
